<svg xmlns="http://www.w3.org/2000/svg" width="61.88" height="422.867" viewBox="0 0 61.88 422.867"><defs><style>.a{fill:#faf2ed;}.b{fill:none;stroke:#004873;stroke-miterlimit:10;stroke-width:1.5px;}</style></defs><g transform="translate(-1499.372 -698.29)"><path class="a" d="M970.362,75.136H964.45a3.243,3.243,0,0,0-3.276,3.212V89.4H929.532V77.761a2.652,2.652,0,0,0-2.678-2.625h-7.111a2.65,2.65,0,0,0-2.676,2.625V478.615a9.7,9.7,0,0,0,9.787,9.6,2.571,2.571,0,0,0,.281-.028v.028H964.05v-.041a3.2,3.2,0,0,0,.4.041,9.1,9.1,0,0,0,9.189-9.015V78.348A3.245,3.245,0,0,0,970.362,75.136Z" transform="translate(584.201 628.047)"/><path class="b" d="M973.317,73.043h-6.312a3.392,3.392,0,0,0-3.5,3.278V87.595H929.739V75.721a2.772,2.772,0,0,0-2.857-2.678h-7.59a2.773,2.773,0,0,0-2.859,2.678V484.615c0,5.409,4.677,9.795,10.449,9.795a2.883,2.883,0,0,0,.3-.028v.028h39.4v-.041a3.646,3.646,0,0,0,.425.041c5.419,0,9.807-4.117,9.807-9.2V76.321A3.392,3.392,0,0,0,973.317,73.043Z" transform="translate(583.689 625.997)"/></g></svg>