<svg xmlns="http://www.w3.org/2000/svg" width="321.962" height="373.133" viewBox="0 0 321.962 373.133">
<defs>
<style>.a,.b{fill:#fae6da;}.a{stroke:#fde8e4;stroke-miterlimit:10;stroke-width:1.28px;}.c{fill:#f2e0dc;}.d{fill:#015985;}</style>
</defs>
<rect class="a" width="198.284" height="8.606" rx="2.43" transform="translate(26.554 45.169) rotate(-12.39)"/><rect class="b" width="21.523" height="311.577" rx="5.22" transform="translate(5.377 61.98) rotate(-12.39)"/><path class="c" d="M83.606,340.443a18.7,18.7,0,0,1-5.2-.461,7.364,7.364,0,0,1-3.442-2.253,6.175,6.175,0,0,1-1.49-3.087,7.541,7.541,0,0,1-.106-1.579l-.16-2.466a154.9,154.9,0,0,0-3.283-22.126c-4.738-21.523-18.932-86.2-31.938-145.5-7.949-36.2-15.543-70.655-21.133-96.1-1.4-6.37-2.679-12.1-3.8-17.282l-.426-1.916c-.124-.586-.3-1.4-.3-1.455a3.549,3.549,0,0,1,1.242-3.229,2.8,2.8,0,0,1,.852-.5,6.583,6.583,0,0,1,1.313-.355l1.952-.426h.461a1.773,1.773,0,0,1,.3,0,2.839,2.839,0,0,1,1.118.124,3.229,3.229,0,0,1,1.047.479,3.549,3.549,0,0,1,.976.994,3.833,3.833,0,0,1,.39.763,1.083,1.083,0,0,1,0,.231,1.4,1.4,0,0,1,.106.373c.089.444.2.869.284,1.331,1.6,7.293,3.9,17.744,6.689,30.483,5.589,25.444,13.148,59.9,21.079,96.028C61.888,225.855,74.7,284.054,78.958,303.43a152.6,152.6,0,0,0,6.281,21.452c.586,1.561,1.189,3.07,1.774,4.6.355.887.568,1.153.745,1.774a6.3,6.3,0,0,1,.337,1.774,8.073,8.073,0,0,1-4.489,7.417,10.114,10.114,0,0,0,9.369-6.334,10.911,10.911,0,0,0,.834-3.087,22.367,22.367,0,0,0,0-3.052c0-1.632-.142-3.283-.266-4.933a154.706,154.706,0,0,0-3.283-22.108C86,281.552,73.226,223.353,61.516,170,53.567,133.89,45.99,99.415,40.383,73.97,37.58,61.248,35.291,50.8,33.676,43.5c-.089-.461-.2-.9-.284-1.331s-.142-.55-.231-.887a8.873,8.873,0,0,0-.284-.976,15.455,15.455,0,0,0-1.561-3.478,14.887,14.887,0,0,0-4.152-4.17,14.549,14.549,0,0,0-3.229-1.65c-.781-.284-1.189-.39-1.189-.39l-1.224-.284a14.2,14.2,0,0,0-3.673-.213,11.179,11.179,0,0,0-1.26.124l-.692.124-.55.106-1.952.426a18.152,18.152,0,0,0-3.158.923,14.639,14.639,0,0,0-3.762,2.165,14.958,14.958,0,0,0-5.5,13.982c.177,1.153.3,1.544.444,2.2s.266,1.242.408,1.881c1.118,5.128,2.4,10.93,3.8,17.282,5.571,25.444,13.13,59.955,21.062,96.028l31.938,145.5a152.917,152.917,0,0,0,6.405,21.452l.9,2.307a13.007,13.007,0,0,0,1.49,2.981,11.569,11.569,0,0,0,4.915,4.116,10.645,10.645,0,0,0,6.033.763,10.239,10.239,0,0,0,2.786-.887Z" transform="translate(0.623 23.301)"/><rect class="b" width="199.029" height="288.67" rx="28.33" transform="translate(47.181 76.686) rotate(-14.3)"/><path class="b" d="M246.373,306.677c-27.467.157-50.409.715-74.221,3.138-5.962.61-11.959,1.342-18.116,2.2l-4.631.662-2.342.366-.586.087h-1.171a35.43,35.43,0,0,1-18.063-3.242,33.255,33.255,0,0,1-10.646-7.914,28.023,28.023,0,0,1-6.3-11.382c-.2-.471-.568-2.074-.9-3.329l-1.065-4.131c-.745-2.859-1.544-5.927-2.4-9.238-1.774-6.641-3.655-14.206-5.909-22.9L66.649,122.554l-2.165-8.28-.532-2.039-.337-1.063v-.732c-.16-.8-.319-1.586-.5-2.371a30.726,30.726,0,0,1,0-9.116,30.02,30.02,0,0,1,2.608-7.983c.319-.575.639-1.15.923-1.743a14.438,14.438,0,0,1,1.029-1.586A24.56,24.56,0,0,1,69.825,84.8a27.06,27.06,0,0,1,8.339-6.641A17.884,17.884,0,0,1,80.808,76.9l.94-.418s1.065-.261,3.283-.994l15.206-3.8,50.906-12.672,15.437-3.852,7.949-1.987,4.01-.994.994-.261.9-.209,1.207-.209a29.349,29.349,0,0,1,19.039,2.527c.692.418,1.473.7,2.147,1.168s1.349.889,2.041,1.307a22.212,22.212,0,0,1,1.881,1.516,21.772,21.772,0,0,1,1.774,1.621,30.437,30.437,0,0,1,5.412,7.391,33.4,33.4,0,0,1,1.6,4.114l.355,1.028c0,.209.106.279.177.593l.231.889c.319,1.2.621,2.371.923,3.486,1.224,4.672,2.4,9.169,3.549,13.457,12.119,46.419,19.624,75.162,23.546,90.153s8.02,28.587,12.172,40.928c2.094,6.171,4.205,12.08,6.37,17.8,1.082,2.859,2.2,5.665,3.318,8.437.479,1.22.976,2.423,1.473,3.626a21.183,21.183,0,0,1,1.171,2.876,36.5,36.5,0,0,1,2.218,12.568,42.274,42.274,0,0,1-2.236,13.945,45.853,45.853,0,0,1-22.428,25.745,52.031,52.031,0,0,0,37.049-16.35,55.819,55.819,0,0,0,15.472-39.62,48.674,48.674,0,0,0-.39-5.752l-.284-2.737L297.936,240c-.373-2.963-.763-5.961-1.207-8.977q-1.3-9.047-3.07-18.6c-2.36-12.794-5.323-26.46-9.244-41.677s-11.285-43.769-23.262-90.223c-1.118-4.288-2.289-8.715-3.549-13.457l-.9-3.486-.231-.889-.355-1.185c-.266-.837-.515-1.743-.781-2.527A69.163,69.163,0,0,0,219.4,17.428a73.392,73.392,0,0,0-22.588-6.885,69.677,69.677,0,0,0-23.688.837l-2.892.593c-.55.1-.745.174-1.118.261l-1.011.261-4.01,1.011-7.86,1.935L140.8,19.328,89.928,32.122,74.722,35.957c-2.342.662-4.383,1.307-5.642,1.743l-1.49.471-.479.209-2.307.941a55.476,55.476,0,0,0-6.512,2.946,68.844,68.844,0,0,0-20.21,16.019,63.416,63.416,0,0,0-5.163,6.763,36.77,36.77,0,0,0-2.449,3.8c-.674,1.36-1.473,2.7-2.218,4.1a70.321,70.321,0,0,0-6.317,19.174,71.3,71.3,0,0,0-.2,22.259c.373,1.9.745,3.817,1.171,5.735l.16.715.124.523.266,1.028.532,2.022c.692,2.737,1.419,5.508,2.129,8.3,11.675,44.71,25.3,97.212,33.376,128.379,2.271,8.715,4.241,16.263,5.962,22.887.869,3.312,1.668,6.38,2.413,9.256l1.082,4.131c.373,1.394.568,2.353,1.189,4.288l1.579,4.933C72.345,308.124,73,309.588,73.6,311l.923,2.057c.337.662.692,1.29,1.029,1.917.71,1.238,1.366,2.423,2.023,3.486,1.348,2.231,2.821,4.166,4.1,5.979a56.976,56.976,0,0,0,3.975,4.689,67.944,67.944,0,0,0,54.384,21.754,63.327,63.327,0,0,0,13.166-2.318l1.579-.418.763-.227.55-.192,2.236-.784,4.4-1.586q8.694-3.207,16.963-6.606C201.784,329.755,222.207,319.454,246.373,306.677Z" transform="translate(16.233 7.67)"/><path class="d" d="M97.775,90.582,95.114,78.818h-.6c-.621,1.544-1.313,3.052-1.774,4.613a89.879,89.879,0,0,0-3.194,10.54c-.816,4.329-1.029,8.765-1.49,13.166a137.8,137.8,0,0,0-.177,21.984,85.63,85.63,0,0,0,3.549,21.292,2.821,2.821,0,0,0,1.1,1.313c1.029.656,2.129,1.171,3.283,1.774a2.626,2.626,0,0,1-.319.976,9.014,9.014,0,0,1-11.3.923,3.318,3.318,0,0,1-.923-1.774c-1.065-5.909-2.52-11.782-3.016-17.744-.586-6.973-.426-14-.426-21.008a126.55,126.55,0,0,1,3.549-28.39,57.171,57.171,0,0,1,4.9-12.3c2.094-4.205,5.323-3.691,9.067-2.129s4.471,4.56,4.915,7.843c.5,3.762.763,7.541,1.029,11.32a1.6,1.6,0,0,1,0,.639,1.3,1.3,0,0,1-1.774.8,22.2,22.2,0,0,0-2.431-.852A1.774,1.774,0,0,1,97.775,90.582Z" transform="translate(61.794 54.916)"/><path class="d" d="M88.691,178.861a10.646,10.646,0,0,1-10.646-.621A51.616,51.616,0,0,1,60.3,160.585a39.655,39.655,0,0,1-4.294-9.706c-1.774-5.731.515-10.646,4.117-14.976s7.222-7.825,10.646-11.835a20.6,20.6,0,0,0,2.732-4.542c.887-1.774.177-3.549-1.774-5.2-2.342-2.076-4.631-4.223-6.867-6.405-1.526-1.473-1.1-2.874.958-3.407A9.422,9.422,0,0,1,73.5,106.29c.266.177.55.852.426,1.029-1.366,2.129.515,2.857,1.615,3.921a37.735,37.735,0,0,1,3.868,3.549c2.324,3,3.371,5.767.532,9.493s-5.625,6.867-8.464,10.273c-1.774,2.041-3.549,3.992-5.092,6.1-3.549,4.684-3.123,9.546-.869,14.727a45.708,45.708,0,0,0,7.1,10.895,80.8,80.8,0,0,0,7.417,7.772,20.6,20.6,0,0,0,4.471,2.36C85.977,177.318,87.325,178.1,88.691,178.861Z" transform="translate(42.896 80.781)"/><path class="d" d="M144.653,149.082a29.491,29.491,0,0,1-5.642,2.307,21.4,21.4,0,0,1-21.629-8.091,7.825,7.825,0,0,1-1.49-6.778c1.118-5.642,4.454-10.22,6.973-15.206,1.224-2.449,2.466-4.879,3.655-7.346a8.748,8.748,0,0,0-.568-8.872c-1.774-2.8-3.549-5.571-5.2-8.357-1.1-1.774-.763-2.466,1.153-3.123,3.336-1.118,6.157,0,8.872,1.774,1.011.621.816,1.4-.16,1.774-1.278.586-1.011,1.26-.461,2.271a69.411,69.411,0,0,1,4.738,9.4,8.375,8.375,0,0,1-.39,5.713c-2.874,6.21-6.1,12.261-9.244,18.347s-.816,12.42,5.838,13.627a15.206,15.206,0,0,0,6.814,0c2.8-.834,4.383.994,6.494,1.774Z" transform="translate(89.563 72.146)"/><path class="d" d="M110.751,129.215a7.647,7.647,0,0,1-9.581-7.86,12.9,12.9,0,0,1,1.934-7.293,4.986,4.986,0,0,1,2.555-1.437c1.224-.355,1.774-.9,1.26-2.165-.781-1.65-1.579-3.3-2.466-4.879s-2.466-1.65-4.205-.852a10.823,10.823,0,0,1-4.809,1.153,6.6,6.6,0,0,1-3.389-2c-.284-.231,0-1.615.461-2.076a9.315,9.315,0,0,1,8.286-2.573c6.955.976,12.083,4.773,14.195,11.6a23.883,23.883,0,0,1,.124,14.727A5.323,5.323,0,0,1,110.751,129.215Zm-.727-10.824-.568-.479c-.568.461-1.349.816-1.632,1.4a3.655,3.655,0,0,0,.763,4.454Z" transform="translate(71.192 76.718)"/><path class="d" d="M115.31,127.252c0-.231,0-.5.16-.621a20.565,20.565,0,0,0,5.891-11.462,35.238,35.238,0,0,0,.479-9.936c-.39-3.549-2.892-4.986-6.565-4.1a52.115,52.115,0,0,0-5.536,2.094,5.678,5.678,0,0,1-6.086-.9c-1.207-1.047-1.313-1.987,0-2.928a17.744,17.744,0,0,1,14.638-2.839c3.939.9,7.772,2.307,10.167,5.98,2.644,4.063,2.236,8.464,1.118,12.811a27.129,27.129,0,0,1-4.9,10.646,7.789,7.789,0,0,1-7.1,2.857C116.925,128.885,116.2,127.909,115.31,127.252Z" transform="translate(79.533 74.369)"/><path class="d" d="M78.658,105.5a3.247,3.247,0,0,0-.55,4.258c1.632,3.655,3.549,7.2,5,10.93,1.632,4.1,2.963,8.322,4.223,12.545a3.265,3.265,0,0,1-.834,2.75,2.857,2.857,0,0,1-3.9.16,5.82,5.82,0,0,1-2.111-3.425,91.5,91.5,0,0,0-4.4-11.161c-1.686-3.655-3.8-7.1-5.465-10.753a26.4,26.4,0,0,1-1.6-5.909,1.934,1.934,0,0,1,.674-1.632C72.181,101.721,76.688,102.857,78.658,105.5Z" transform="translate(53.444 79.424)"/><path class="d" d="M94.334,126.129c-1.49-3.8-3.034-7.559-4.454-11.374s-2.679-7.576-4.01-11.374c-.55-1.526,0-2.307,1.579-2.644a10.646,10.646,0,0,1,8.056,2.129c.213.142,0,1.153-.231,1.774s-.834,1.473-.674,2.005c1.118,3.549,2.4,6.92,3.549,10.38.994,2.821,2.058,5.625,2.945,8.5a3.389,3.389,0,0,1-2.04,4.152,4.258,4.258,0,0,1-4.755-1.349,6.743,6.743,0,0,1-.319-2.2Z" transform="translate(66.335 77.923)"/><path class="d" d="M129.544,91.24a45.511,45.511,0,0,1,6.175,1.881,39.035,39.035,0,0,1,14.195,10.912,14.9,14.9,0,0,1,3.868,11.267,3.549,3.549,0,0,1-2.537,3.105c-1.774.639-2.608-.869-3.85-1.384-.2,0-.213-.745-.231-1.136a19.944,19.944,0,0,0-7.736-14.425c-2.608-2.2-5.11-4.454-8.641-5.2a6.21,6.21,0,0,1-2.626-1.774c-.444-.426-.9-1.331-.71-1.774S128.461,91.914,129.544,91.24Z" transform="translate(98.657 70.654)"/><path class="d" d="M122.986,83.011a56.887,56.887,0,0,1-1.437,9.3,11.853,11.853,0,0,1-3.8,4.542,14.621,14.621,0,0,1-3.939,1.774c-1.774.727-2.892.213-3.442-1.774-.39-1.384-.745-2.786-1.029-4.187a4.809,4.809,0,0,0-2.324-3.833c-1.473-.8-.586-2.129-.177-3.087.177-.461,1.189-.71,1.774-.834,3.549-.657,6.955-1.313,10.451-1.774a25.438,25.438,0,0,1,3.921-.124ZM114.4,93.338c2.928-1.242,3.673-2.644,2.963-5.554-1.331.444-3.283.532-3.744,1.419s.444,2.679.781,4.205Z" transform="translate(82.237 64.261)"/><path class="d" d="M129.531,95.929c-.5-.444-1.419-.94-1.774-1.774s-.781-1.9.532-2.644c3.247-1.774,3.247-1.881,1.934-5.323a3.9,3.9,0,0,0-1.4-1.774,2.023,2.023,0,0,1-.781-3.105,3.371,3.371,0,0,1,2.466-.994,3.318,3.318,0,0,1,3.442,2.608,32.308,32.308,0,0,0,1.437,3.85c.213.479.781,1.171,1.1,1.136a1.774,1.774,0,0,0,1.277-1.1c.39-1.668,1.384-3.549-.834-4.844-.5-.3-.586-1.65-.426-2.431.106-.479.994-.816,1.579-1.153a1.774,1.774,0,0,1,.816,0c5.323.426,4.258,1.047,4.205,4.773-.089,5.536-2.236,9.067-7.772,10.415A45.46,45.46,0,0,0,129.531,95.929Z" transform="translate(98.652 60.659)"/><path class="d" d="M103,100.151c-1.774.408-2.91-.337-3.016-2.058s-.16-3.141-.248-4.72c0-.9-.213-1.774-1.419-1.419-.923.213-2.165,0-2.058,1.668.142,1.9.124,3.833.319,5.731a2.023,2.023,0,0,1-1.526,2.466,9.689,9.689,0,0,0-2.307.869A1.774,1.774,0,0,1,89.886,102a3.779,3.779,0,0,1,.639-3.141c1.473-1.774,1.969-5.11.373-6.707-1.153-1.153-.657-2.182-.106-3.123.284-.461,1.278-.586,1.97-.728,2.076-.408,4.17-.674,6.228-1.1,3.442-.728,5.057.479,5.323,4.01.124,2.253.213,4.507.355,6.76C104.667,99.264,104.365,100.116,103,100.151Z" transform="translate(69.523 67.367)"/><path class="d" d="M103.571,95.488a11.748,11.748,0,0,1-1.881-1.544,16.255,16.255,0,0,1-1.455-2.4c-.213-.39-.2-1.065-.5-1.26-1.632-1.047-.834-2.36-.248-3.371.284-.479,1.419-.5,2.182-.657,1.6-.3,3.229-.532,4.826-.852a3.655,3.655,0,0,1,4.862,3.637c.142,2.449.3,4.915.231,7.364a2.466,2.466,0,0,1-1.313,1.774c-2.821,1.047-5.713,1.774-8.57,2.8a2.058,2.058,0,0,1-2.945-1.473c-.426-1.331-.444-2.573,1.437-2.928A24.643,24.643,0,0,0,103.571,95.488Zm.692-.692c2.874-.266,3.3-1.419,2.147-4.507-2.271.142-2.449.621-.852,3.105Z" transform="translate(76.297 65.979)"/><path class="d" d="M124.836,82.252c1.526-.337,3.034-.71,4.56-1.029,2.236-.444,3,.284,2.857,2.537A14.834,14.834,0,0,1,126.1,95.276c-1.136.852-2.165,1.774-3.407.231a2.857,2.857,0,0,1,.586-4.028c1.366-1.313,2.5-2.874,3.744-4.329l-.532-.763-3.691.852c-1.987.444-2.821-.124-3.016-2.111,0-.94-.142-1.9-.177-2.857A2.75,2.75,0,0,1,123.15,79.5c.781.319,1.3,1.349,1.916,2.058Z" transform="translate(92.613 61.472)"/><path class="d" d="M134.284,115.325a3.833,3.833,0,0,1-5.021-3.708c-.177-2.236-.585-4.471-.923-6.707-.3-1.952.39-3.105,2.324-2.821a22.73,22.73,0,0,1,5.8,2.165c.408.2.6,1.207.6,1.774,0,2.041-.213,4.081-.2,6.139a2.768,2.768,0,0,1-2.591,3.158Z" transform="translate(99.329 79.021)"/><path class="d" d="M104.529,122.855l2.945.976c.3-.319.71-.852,1.189-1.278a2.892,2.892,0,0,1,4.613.444,42.937,42.937,0,0,1,2.182,7.364,1.717,1.717,0,0,1-.887,1.1c-1.349.426-2.75.674-4.205,1.011-.319-1.668-.9-3.123,1.331-3.549.3,0,.727-1.136.568-1.544a12.9,12.9,0,0,0-1.561-2.4c-.568.408-1.508.763-1.6,1.278a17.123,17.123,0,0,0-.2,4.471c.142,1.774-.39,2.484-2.5,2.271a35.276,35.276,0,0,0-.337-4.294c-.16-.816-.887-1.49-1.224-2.289s-.639-2-.958-3.016Z" transform="translate(80.449 94.168)"/><path class="d" d="M96.307,127.606c-.869-2.7-.834-2.768,1.544-3.318,5-1.171,5.926-.532,6.831,4.578.781,4.383.781,4.383-3.549,5.323l-3.549.8c-.923-2.857-.887-2.963,1.632-3.549a13.182,13.182,0,0,1,1.384-.355c1.118-.16,1.774-.586,1.437-1.881s-.621-2.307-2.218-2.058c-.621.106-1.207.231-1.774.319S96.857,127.535,96.307,127.606Z" transform="translate(74.174 95.857)"/><path class="d" d="M93.55,126.4a4.873,4.873,0,0,0,1.615-.16c3.212-.461,4.205.39,4.241,3.655a7.364,7.364,0,0,1-4.933,7.1c-.55-1.632-.852-3.087,1.011-4.187a3.069,3.069,0,0,0,1.153-1.632c.426-1.224.142-1.987-1.437-1.774-3.549.532-3.549.5-4.489-3.105-.142-.6-.55-1.224-.444-1.774a2.094,2.094,0,0,1,1.153-1.331,1.561,1.561,0,0,1,1.348.674A12.26,12.26,0,0,1,93.55,126.4Z" transform="translate(69.887 95.394)"/><path class="d" d="M84.094,133.808a14.089,14.089,0,0,1,.586,2.8c0,.479-.515,1.384-.852,1.4a2.058,2.058,0,0,1-1.668-.781,24.715,24.715,0,0,1-.958-3.992c-.248-1.348-.923-1.881-2.307-1.437a3.85,3.85,0,0,1-1.774.319c-.568-.106-1.49-.656-1.49-.976a6.174,6.174,0,0,1,.887-2.111.772.772,0,0,0,.39-.106C82.266,127.438,82.763,127.846,84.094,133.808Z" transform="translate(58.566 99.273)"/><path class="d" d="M88.292,130.147l-3.762.586c-1.118-2.484-.958-2.857,1.49-3.425L92,125.96a27.293,27.293,0,0,0-.586,3.549,21.43,21.43,0,0,0,.2,3.549,17.166,17.166,0,0,1,.5,2.413,1.774,1.774,0,0,1-.9,1.207,1.668,1.668,0,0,1-1.49-.763C89.126,134.14,88.771,132.259,88.292,130.147Z" transform="translate(64.943 97.539)"/><path class="d" d="M68.8,130.543c3.442-.923,4.809-.213,5.589,3,.639,2.52,1.082,5.075,1.774,7.577.479,1.774-.248,2.378-2.236,2.236-.568-2.555-1.207-5.2-1.774-7.843-.266-1.277-.727-2.076-2.2-2.182S68.552,133.027,68.8,130.543Z" transform="translate(53.17 100.799)"/><path class="d" d="M71.91,129.928c4.01-1.136,5.323-.408,6.175,2.981.337,1.331.639,2.661.923,3.992.213.958.532,1.9-.94,2.2s-1.526-.763-1.774-1.686a19.863,19.863,0,0,1-.426-2.005c-.284-1.508-.515-2.91-2.626-3C72.8,132.394,72.389,130.85,71.91,129.928Z" transform="translate(55.685 100.225)"/><path class="d" d="M80.22,127.928c4.418-.8,5.323-.231,6.246,3.424a41.224,41.224,0,0,1,.923,4.4c0,.426-.568,1.331-.887,1.348a1.952,1.952,0,0,1-1.6-.834,11.108,11.108,0,0,1-.692-2.768c-.3-1.49-.426-2.981-2.644-2.91C81.16,130.607,80.717,128.939,80.22,127.928Z" transform="translate(62.12 98.818)"/><path class="d" d="M102.887,129.707l.355-2.874c-.852-.586-1.774-.94-2.218-1.632s.106-1.349.213-2.041a11.748,11.748,0,0,1,3.8.781c1.153.71,1.118,4.613,0,5.554C104.662,129.867,103.7,129.654,102.887,129.707Z" transform="translate(78.098 95.371)"/><path class="d" d="M95.088,372.047a31.637,31.637,0,0,0,8.73-.763l51.829-11.64,112.281-25.231,29.6-6.654,14.9-3.354,3.779-.852a7.648,7.648,0,0,0,3.779-2.324,7.505,7.505,0,0,0,1.881-4.046,6.866,6.866,0,0,0,0-2.253c-.124-.745-.248-1.278-.39-1.934-4.134-20-8.286-40.012-12.421-59.813-16.289-79.189-32.027-154.795-43.6-210.6Q263.3,32.1,261.327,22.606l-1.916-9.227c-.3-1.49-.6-2.963-.9-4.4a6.441,6.441,0,0,0-2.874-4.294,6.512,6.512,0,0,0-4.933-.852l-4.063.852-3.85.8-.94.2h-.55L239.538,5.5l-7.1-.657L230.667,4.7h-.408V4.348a6.5,6.5,0,0,0-.373-.9A6.228,6.228,0,0,0,225.521.125a6.512,6.512,0,0,0-1.774-.106,6.429,6.429,0,0,0-1.49.266L217.27,1.314l-7.825,1.632-6.494,1.349-91.787,19-96.525,20L7.9,44.7a23.066,23.066,0,0,0-3.549.869,6.849,6.849,0,0,0-3.212,2.626A7.1,7.1,0,0,0,0,52.184a9.315,9.315,0,0,0,.284,1.934l.355,1.774q.727,3.442,1.437,6.92Q4.951,76.724,7.932,91.06c3.957,19.074,8.038,38.645,12.119,58.429,8.2,39.6,16.572,80.094,24.734,119.467,4.081,19.678,8.091,39.036,12.012,57.95q2.928,14.195,5.767,27.857l.71,3.424.355,1.774a10.4,10.4,0,0,0,.5,1.774,11.427,11.427,0,0,0,4.755,5.873l.408.231a1.775,1.775,0,0,0,.692.284l.834.2,1.668.408,3.3.8,5.323,1.3,5.146,1.242.408.2.639.248a9.482,9.482,0,0,0,1.224.373,8.692,8.692,0,0,0,2.289.248A9.758,9.758,0,0,0,95,372.065a15.5,15.5,0,0,1-3.992-.656,14.91,14.91,0,0,1-1.774-.6l-.976-.426-.515-.231a3.817,3.817,0,0,0-.781-.355l-5.217-1.277L76.3,367.292l-3.318-.8-1.668-.39-.834-.213h0l-.319-.2a8.872,8.872,0,0,1-3.762-4.649,22.535,22.535,0,0,1-.745-3.336l-.71-3.424c-1.9-9.12-3.815-18.436-5.784-27.857-3.9-18.861-7.914-38.273-11.995-57.95-8.127-39.373-16.608-79.864-24.805-119.432-4.1-19.82-8.162-39.391-12.1-58.554Q7.275,76.3,4.4,62.3q-.71-3.549-1.437-6.92a30.323,30.323,0,0,1-.6-3.247,4.773,4.773,0,0,1,.745-2.644,4.578,4.578,0,0,1,2.111-1.774,27.927,27.927,0,0,1,3.158-.745l6.743-1.4,96.525-20L203.43,6.6l6.512-1.278,7.825-1.774,4.986-1.029a5.021,5.021,0,0,1,2.307-.16,3.8,3.8,0,0,1,2.058,1.189,3.337,3.337,0,0,1,.674.958c.106.177.16.373.248.55l.106.426.16.781v.39c0,.142,0,.3.213.266h.816l1.189.106,1.65.16,7.1.639,1.863.16h.532a1.9,1.9,0,0,0,.8,0l.94-.2,3.85-.8,3.992-.834a4.152,4.152,0,0,1,3.176.532A4.1,4.1,0,0,1,256.2,9.458q.461,2.182.9,4.418l1.952,9.191q1.97,9.511,4.134,19.979c11.569,55.786,27.219,131.391,43.614,210.58,4.117,19.8,8.251,39.816,12.42,59.813.106.6.284,1.313.355,1.774a4.612,4.612,0,0,1,0,1.561,5.323,5.323,0,0,1-3.939,4.418l-3.673.834-14.9,3.354-29.6,6.654-112.334,25.3L103.3,369.066A31.937,31.937,0,0,0,95.088,372.047Z" transform="translate(0.001 0.001)"/><path class="d" d="M.66,26.841a31.619,31.619,0,0,0,8.322,2.768L26.6,32.945l1.916.355h0v.355c.248,1.278.515,2.591.781,3.9q.834,3.975,1.65,8.038c1.1,5.447,2.253,11.036,3.407,16.714,2.307,11.356,4.684,23.067,7.1,34.458L59.2,184,91.755,343.066a32.24,32.24,0,0,0,2.892,8.286,31.336,31.336,0,0,0-.586-8.748L61.591,183.534S53.11,141.979,43.848,96.307l-7.1-34.458c-1.171-5.678-2.307-11.285-3.407-16.714-.568-2.732-1.1-5.412-1.65-8.038-.266-1.331-.532-2.626-.8-3.921l-.319-1.6c0-.444-.444-.319-.727-.426l-.923-.177-1.916-.355L9.425,27.231a31.814,31.814,0,0,0-8.765-.39Z" transform="translate(0.512 20.678)"/><path class="d" d="M16.94,49.894a31.53,31.53,0,0,0,8.748-.656L128.6,27.36,224.646,6.919a32.239,32.239,0,0,0,8.233-2.892,32.045,32.045,0,0,0-8.73.657l-96.081,20.37L25.155,46.948a31.584,31.584,0,0,0-8.215,2.945Z" transform="translate(13.119 3.072)"/></svg>