<svg xmlns="http://www.w3.org/2000/svg" width="53.245" height="423.12" viewBox="0 0 53.245 423.12">
<defs>
<style>
.a{fill:#EDD6C9;stroke:#004873;stroke-miterlimit:10;stroke-width:1.5px;}.b{fill:#004873;}
</style>
</defs>
<g transform="translate(0.75 0.75)"><path class="a" d="M965.182,73.043h-5.409a3.147,3.147,0,0,0-3,3.28V87.6H927.836V75.723a2.572,2.572,0,0,0-2.448-2.68h-6.5a2.573,2.573,0,0,0-2.45,2.68v409.14c0,5.413,4.008,9.8,8.955,9.8a2.128,2.128,0,0,0,.254-.028v.028h33.767v-.041a2.7,2.7,0,0,0,.364.041c4.644,0,8.4-4.119,8.4-9.2V76.323A3.147,3.147,0,0,0,965.182,73.043Z" transform="translate(-916.433 -73.043)"/><path class="b" d="M942.378,207.815c1.285-.016,1.947.584,1.915,2.031-.039,1.793.056,3.6-.113,5.376-.2,2.149-1.187,3.426-3.126,3.536-4.146.236-8.3.228-12.458.161-.45-.006-1.226-1.027-1.269-1.627-.165-2.381-.083-4.782-.126-7.175-.026-1.44.63-2.1,1.887-2.106C931.385,208,940.243,207.844,942.378,207.815Zm-6.5,2.263v.02c-1.036,0-2.073-.029-3.108,0-4.06.13-4.057.175-3.975,4.579.028,1.517.585,2.182,1.96,2.153,2.725-.061,5.454,0,8.175-.13,3.317-.152,3.956-1.072,3.691-4.705-.095-1.322-.613-1.952-1.839-1.93C939.149,210.1,937.515,210.078,935.88,210.078Z" transform="translate(-907.201 66.215)"/><path class="b" d="M928.527,233.965c.13,1.228.29,2.226.333,3.229.111,2.674.332,2.977,2.8,2.979,3.059,0,6.118-.051,9.178-.12,1.887-.043,2.114-.362,2.067-2.493a28.218,28.218,0,0,1,.03-2.859c.02-.268.379-.506.581-.756.258.25.732.494.739.754a57.608,57.608,0,0,1-.043,6.254c-.032.407-1.037,1-1.612,1.033-3.655.177-7.316.218-10.974.311-1.087.028-2.207-.081-2.855,1.265-.072.148-1.209-.1-1.207-.161.019-3,.106-6,.2-9.005C927.769,234.339,927.946,234.291,928.527,233.965Z" transform="translate(-906.888 93.215)"/><path class="b" d="M944.072,191.677c.009,1.307-.531,1.917-1.739,1.623-4.7-1.141-9.4-2.263-14.078-3.5-.509-.134-.86-.98-1.284-1.5.552-.193,1.152-.645,1.649-.539,3.81.817,7.6,1.742,11.4,2.637,1.952.46,2.216.234,2.231-1.946.013-1.915-.024-3.833.058-5.744.019-.439.438-.858.672-1.287.294.427.81.838.838,1.285C943.917,184.316,944.062,190.3,944.072,191.677Z" transform="translate(-907.396 38.944)"/><path class="b" d="M942.834,230.928c0-1.135-.069-2.279.037-3.4.037-.407.5-.765.763-1.143.227.358.646.71.654,1.076.076,3.227.1,6.456.095,9.685,0,1.387-.9,1.281-1.75,1.076q-5.285-1.272-10.561-2.572a21.025,21.025,0,0,1-3.184-.834c-.553-.232-.944-.925-1.408-1.411.593-.189,1.23-.643,1.766-.527,3.752.809,7.48,1.757,11.224,2.613,2.056.47,2.3.228,2.339-2.048.017-.838,0-1.675,0-2.513Z" transform="translate(-906.961 85.402)"/><path class="b" d="M929.292,206.255c-.743-.049-2.084-.628-2.077-.939.03-1.517,1.295-1.086,2.13-1.114,3.6-.128,7.209-.167,10.812-.256,2-.049,2.234-.321,2.261-2.533.018-1.553-.026-3.111.052-4.66.021-.378.409-.734.628-1.1.267.374.754.738.769,1.122.1,2.568.115,5.138.123,7.708,0,1.257-.776,1.6-1.759,1.608C939.939,206.1,931.305,206.385,929.292,206.255Z" transform="translate(-907.188 53.648)"/><path class="b" d="M943.931,196.964a4.281,4.281,0,0,1-.49,1.23c-.351-.2-.691-.425-1.053-.594a5.624,5.624,0,0,0-2-.819c-3.49-.035-6.984.065-10.476.112a4.688,4.688,0,0,1-1.623-.083c-.442-.161-.786-.643-1.172-.984a5.593,5.593,0,0,1,1.237-1.1,3.6,3.6,0,0,1,1.456-.089c3.438-.012,6.876,0,10.314-.028,2.013-.016,2.253-.3,2.29-2.489a20.547,20.547,0,0,1,.063-2.324c.043-.317.4-.584.62-.874.215.3.6.584.617.893C943.779,191.118,944,195.9,943.931,196.964Z" transform="translate(-907.276 46.687)"/><path class="b" d="M929.477,228.5c-.7-.057-1.9-.5-1.947-.893-.154-1.307,1-1.147,1.757-1.175,3-.112,6-.152,9-.216,3.587-.075,4.283-.844,4.309-4.756a2.733,2.733,0,0,1,.084-1.057,3.19,3.19,0,0,1,.735-.785c.206.246.6.5.591.738a30.067,30.067,0,0,1-.307,5.659c-.371,1.724-1.98,2.072-3.429,2.245-.975.118-1.961.114-2.944.136S931.1,228.628,929.477,228.5Z" transform="translate(-906.93 78.409)"/><path class="b" d="M928.89,220.256c-.537-.028-1.044-.7-1.564-1.07.505-.342,1-.956,1.521-.98,3.771-.175,7.549-.244,11.323-.313,1.28-.024,2.45-.075,2.573-1.95.019-.272.492-.508.756-.76.227.3.574.563.665.907.737,2.79-.054,3.967-2.634,3.983C939.559,220.083,931.13,220.378,928.89,220.256Z" transform="translate(-907.093 73.828)"/><path class="b" d="M925.643,183.787c-.514-.026-1-.618-1.5-.95.472-.372.936-1.051,1.419-1.07q6.4-.244,12.8-.242c.5,0,1,.643,1.5.986-.524.37-1.035,1.025-1.577,1.057C936.151,183.693,927.718,183.9,925.643,183.787Z" transform="translate(-909.826 39.051)"/><path class="b" d="M926.34,228.66c-.574-.033-1.124-.608-1.685-.933.531-.368,1.053-1.039,1.594-1.055q6.216-.189,12.441-.12c.561.006,1.116.628,1.675.966-.583.366-1.15,1.009-1.75,1.047C936.548,228.694,928.353,228.776,926.34,228.66Z" transform="translate(-909.383 85.556)"/><path class="b" d="M932.33,197.76c-1.309,0-2.625.073-3.925-.043-.431-.039-.827-.565-1.239-.87.375-.346.739-.974,1.126-.992,2.723-.128,5.452-.165,8.177-.13.34,0,.674.594,1.012.913-.353.364-.683,1-1.062,1.039-1.354.128-2.723.051-4.088.051Z" transform="translate(-907.23 53.709)"/></g></svg>