<svg xmlns="http://www.w3.org/2000/svg" width="152.025" height="292.02" viewBox="0 0 152.025 292.02">
    <defs>
    <style>.a{fill:#faf2ed;}.b{fill:none;stroke:#004873;stroke-miterlimit:10;stroke-width:1.5px;}</style>
    </defs>
<g transform="translate(-1339.163 -700.893)">
    <path class="a" d="M954.471,75.136h-4.149a2.276,2.276,0,0,0-2.3,2.255v7.757H925.815V76.978a1.861,1.861,0,0,0-1.88-1.842h-4.991a1.86,1.86,0,0,0-1.878,1.842v281.33a6.8,6.8,0,0,0,6.869,6.739,1.812,1.812,0,0,0,.2-.02v.02h25.908v-.029a2.239,2.239,0,0,0,.281.029,6.389,6.389,0,0,0,6.449-6.327V77.391A2.277,2.277,0,0,0,954.471,75.136Z" 
    transform="translate(628.434 291.662) rotate(22)"/>
    <path class="b" d="M956.356,73.043h-4.43a2.38,2.38,0,0,0-2.454,2.3v7.912h-23.7V74.923a1.945,1.945,0,0,0-2-1.88h-5.327a1.947,1.947,0,0,0-2.006,1.88V361.9a7.115,7.115,0,0,0,7.334,6.874,2.023,2.023,0,0,0,.208-.02v.02h27.653v-.029a2.56,2.56,0,0,0,.3.029,6.678,6.678,0,0,0,6.883-6.453V75.343A2.38,2.38,0,0,0,956.356,73.043Z" 
    transform="translate(628.581 290.843) rotate(22)"/>
</g>
</svg>