<svg xmlns="http://www.w3.org/2000/svg" width="269.49" height="312.732" viewBox="0 0 269.49 312.732"><defs><style>.a{fill:#edd6c9;}.b{fill:#004873;}.c{fill:none;stroke:#004873;stroke-miterlimit:10;stroke-width:1.5px;}</style></defs><g transform="translate(0.76 0.758)"><rect class="a" width="166.245" height="7.219" rx="2.426" transform="matrix(0.977, -0.215, 0.215, 0.977, 21.269, 36.874)"/><rect class="a" width="20.357" height="267.598" rx="5.612" transform="translate(4.992 43.951) rotate(-11.136)"/><rect class="a" width="188.654" height="263.585" rx="13.402" transform="matrix(0.977, -0.215, 0.215, 0.977, 24.964, 47.282)"/><g transform="translate(82.741 104.976)"><path class="b" d="M810.688,163.515l-2.239-9.855-.5-.042c-.516,1.287-1.1,2.55-1.531,3.865a72.554,72.554,0,0,0-2.671,8.834c-.686,3.627-.87,7.351-1.25,11.033a114.458,114.458,0,0,0-.155,18.443,71.427,71.427,0,0,0,3.039,17.891,2.3,2.3,0,0,0,.921,1.1c.854.549,1.779.986,2.754,1.51-.1.312-.1.638-.265.818-2.209,2.421-7.029,2.83-9.48.766a2.633,2.633,0,0,1-.771-1.452c-.9-4.953-2.114-9.884-2.535-14.882-.489-5.839-.354-11.74-.354-17.613A105.676,105.676,0,0,1,798.6,160.1a47.64,47.64,0,0,1,4.1-10.3c1.759-3.523,4.5-3.1,7.607-1.794,2.938,1.238,3.749,3.825,4.117,6.588.418,3.147.641,6.32.866,9.489a1.454,1.454,0,0,1-.077.539,1.1,1.1,0,0,1-1.477.671,16.078,16.078,0,0,0-2.04-.726A1.384,1.384,0,0,1,810.688,163.515Z" transform="translate(-759.295 -147.046)"/><path class="b" d="M799.139,243c-3.309,1.712-6.323,1.012-9.008-.525-6.247-3.571-10.994-8.8-14.815-14.8a33.523,33.523,0,0,1-3.6-8.144c-1.468-4.8.427-8.952,3.45-12.553,2.868-3.42,6.067-6.564,9-9.929a17.256,17.256,0,0,0,2.3-3.8c.742-1.516.141-2.92-1.473-4.356q-2.943-2.618-5.766-5.371c-1.282-1.247-.927-2.422.808-2.858,2.409-.605,4.487.269,6.439,1.553.228.15.464.717.362.875-1.148,1.782.431,2.4,1.357,3.274a30.692,30.692,0,0,1,3.236,3.062c1.955,2.507,2.833,4.831.443,7.959-2.254,2.95-4.712,5.744-7.087,8.6-1.422,1.711-2.943,3.346-4.268,5.128-2.919,3.925-2.63,8-.736,12.342a38.408,38.408,0,0,0,5.955,9.142,66.612,66.612,0,0,0,6.219,6.512c1.009.924,2.5,1.315,3.751,1.98C796.859,241.71,797.995,242.364,799.139,243Z" transform="translate(-771.207 -130.744)"/><path class="b" d="M855.789,216.241a25,25,0,0,1-4.731,1.922c-7.357,1.382-13.415-1.064-18.132-6.782a6.553,6.553,0,0,1-1.25-5.682c.94-4.729,3.74-8.574,5.844-12.751,1.03-2.047,2.062-4.094,3.072-6.152a7.35,7.35,0,0,0-.488-7.507c-1.44-2.34-2.9-4.668-4.361-7-.916-1.462-.629-2.075.979-2.62,2.791-.943,5.162.057,7.452,1.461.841.515.678,1.171-.143,1.555-1.065.5-.842,1.059-.387,1.906a57.881,57.881,0,0,1,3.945,7.953,7,7,0,0,1-.329,4.79c-2.41,5.208-5.121,10.279-7.74,15.39-2.556,4.988-.689,10.447,4.889,11.42a12.905,12.905,0,0,0,5.717-.049c2.343-.707,3.678.821,5.435,1.431Z" transform="translate(-741.798 -136.19)"/><path class="b" d="M823.547,200.5c-4.634,1.259-8.135-2.563-8.032-6.583a10.748,10.748,0,0,1,1.622-6.116,4.094,4.094,0,0,1,2.139-1.2c1.027-.308,1.547-.759,1.046-1.821-.655-1.384-1.317-2.767-2.068-4.1-.87-1.546-2.056-1.373-3.517-.714a9.122,9.122,0,0,1-4.036.977,5.659,5.659,0,0,1-2.876-1.684c-.226-.2.015-1.357.387-1.741a7.847,7.847,0,0,1,6.952-2.16c5.83.826,10.14,4.011,11.862,9.731a19.974,19.974,0,0,1,.232,12.283A4.383,4.383,0,0,1,823.547,200.5Zm-.623-9.065-.471-.4c-.467.387-1.12.681-1.36,1.178a3.057,3.057,0,0,0,.631,3.733Z" transform="translate(-753.391 -133.284)"/><path class="b" d="M829.095,198.377c.046-.2.028-.424.131-.521a17.219,17.219,0,0,0,4.938-9.609,29.109,29.109,0,0,0,.4-8.331c-.324-3.033-2.42-4.185-5.506-3.44a43.978,43.978,0,0,0-4.642,1.754,4.749,4.749,0,0,1-5.091-.757c-1.018-.872-1.1-1.674.024-2.459a14.9,14.9,0,0,1,12.272-2.37c3.3.757,6.512,1.931,8.522,5,2.229,3.408,1.886,7.1.942,10.747a22.586,22.586,0,0,1-4.1,8.977,6.545,6.545,0,0,1-5.894,2.4C830.444,199.738,829.839,198.923,829.095,198.377Z" transform="translate(-748.126 -134.768)"/><path class="b" d="M792.936,181.194c-1.253,1.022-.989,2.345-.448,3.572,1.357,3.075,2.962,6.048,4.2,9.169,1.357,3.44,2.479,6.977,3.532,10.524a2.718,2.718,0,0,1-.693,2.3,2.416,2.416,0,0,1-3.28.135,4.979,4.979,0,0,1-1.772-2.871,76.151,76.151,0,0,0-3.74-9.367c-1.412-3.057-3.188-5.945-4.591-9.005a22.751,22.751,0,0,1-1.333-4.957,1.619,1.619,0,0,1,.57-1.378C787.513,178.024,791.283,178.974,792.936,181.194Z" transform="translate(-764.582 -131.592)"/><path class="b" d="M808.746,198.16c-1.25-3.179-2.544-6.344-3.734-9.545-1.175-3.157-2.243-6.353-3.362-9.53-.452-1.284.067-1.94,1.332-2.211,2.556-.549,4.706.479,6.75,1.784.177.112-.065.969-.2,1.458-.155.576-.7,1.223-.558,1.674.933,2.926,2.008,5.805,3.03,8.7.836,2.37,1.729,4.725,2.47,7.125a2.843,2.843,0,0,1-1.769,3.63c-1.3.513-3.429-.015-3.989-1.122a5.878,5.878,0,0,1-.269-1.849Z" transform="translate(-756.438 -132.572)"/><path class="b" d="M845.015,167.413a36.8,36.8,0,0,1,5.188,1.578,32.777,32.777,0,0,1,11.866,9.139c2.148,2.67,3.691,5.78,3.242,9.454a2.9,2.9,0,0,1-2.13,2.595c-1.5.542-2.177-.717-3.218-1.15-.171-.071-.177-.625-.2-.96-.314-5-2.7-8.852-6.46-12.028-2.193-1.854-4.289-3.746-7.245-4.369a5.214,5.214,0,0,1-2.2-1.522c-.367-.354-.75-1.12-.6-1.482C843.448,168.21,844.174,167.975,845.015,167.413Z" transform="translate(-736.085 -137.112)"/><path class="b" d="M836.1,159.248c-.4,2.867-.445,5.448-1.214,7.79-.484,1.471-1.925,2.742-3.188,3.806a11.742,11.742,0,0,1-3.289,1.424c-1.561.617-2.423.182-2.9-1.5-.324-1.157-.622-2.327-.861-3.505-.268-1.315-.6-2.5-1.946-3.219-1.239-.662-.488-1.778-.158-2.578.162-.39,1-.6,1.571-.7,2.914-.559,5.833-1.1,8.766-1.553A20.553,20.553,0,0,1,836.1,159.248Zm-7.2,8.647c2.456-1.034,3.083-2.217,2.48-4.655-1.105.372-2.745.449-3.135,1.186C827.827,165.206,828.6,166.617,828.9,167.894Z" transform="translate(-746.426 -141.143)"/><path class="b" d="M845.013,169.276c-.421-.378-1.184-.787-1.494-1.418-.338-.689-.655-1.589.455-2.214,2.714-1.531,2.719-1.583,1.617-4.508a3.274,3.274,0,0,0-1.171-1.561,1.7,1.7,0,0,1-.655-2.6,2.988,2.988,0,0,1,4.957,1.357,25.3,25.3,0,0,0,1.2,3.225c.176.4.656.983.921.946a1.542,1.542,0,0,0,1.075-.916c.327-1.4,1.162-2.91-.708-4.061-.406-.25-.484-1.385-.348-2.038.083-.4.839-.69,1.328-.967.171-.1.449-.016.678,0,4.526.36,3.575.872,3.529,4-.07,4.64-1.878,7.595-6.515,8.736A35.8,35.8,0,0,0,845.013,169.276Z" transform="translate(-736.094 -143.425)"/><path class="b" d="M816.692,174.2c-1.546.342-2.438-.289-2.539-1.732-.092-1.315-.129-2.633-.195-3.95-.037-.756-.185-1.431-1.192-1.2-.786.184-1.822.063-1.729,1.4.112,1.6.1,3.212.271,4.805a1.714,1.714,0,0,1-1.291,2.078,7.737,7.737,0,0,0-1.922.728,1.53,1.53,0,0,1-2.394-.586,3.122,3.122,0,0,1,.531-2.636c1.233-1.437,1.647-4.279.3-5.618-.966-.964-.544-1.837-.083-2.612.235-.4,1.064-.5,1.65-.617,1.736-.339,3.5-.565,5.226-.93,2.88-.6,4.234.408,4.389,3.373.1,1.889.17,3.78.3,5.667C818.089,173.455,817.784,174.172,816.692,174.2Z" transform="translate(-754.437 -139.185)"/><path class="b" d="M818.576,169.974A10.341,10.341,0,0,1,817,168.686a14.146,14.146,0,0,1-1.221-2.008c-.182-.338-.156-.9-.415-1.067-1.367-.869-.7-1.967-.205-2.816.234-.4,1.187-.424,1.827-.549,1.345-.263,2.7-.454,4.048-.723,2.353-.473,3.945.675,4.081,3.045.118,2.057.243,4.121.185,6.177a2.082,2.082,0,0,1-1.1,1.538c-2.359.876-4.793,1.546-7.178,2.354a1.733,1.733,0,0,1-2.473-1.245c-.36-1.1-.376-2.154,1.2-2.444A21.6,21.6,0,0,0,818.576,169.974Zm.588-.585c2.4-.216,2.767-1.178,1.794-3.777-1.909.119-2.052.525-.716,2.6Z" transform="translate(-750.167 -140.036)"/><path class="b" d="M839.812,157.93c1.272-.289,2.538-.6,3.816-.861,1.872-.379,2.522.226,2.4,2.121a12.452,12.452,0,0,1-5.153,9.66c-.961.714-1.813,1.516-2.856.19-.86-1.093-.55-2.37.494-3.379,1.144-1.105,2.1-2.41,3.133-3.629l-.454-.634c-1.028.234-2.058.464-3.084.7-1.666.384-2.374-.1-2.531-1.755-.076-.8-.119-1.6-.15-2.4-.058-1.5,1.532-2.877,2.9-2.324.661.268,1.079,1.132,1.607,1.726Z" transform="translate(-739.89 -142.925)"/><path class="b" d="M849.13,189.349c-2.473.488-4.039-.812-4.213-3.108-.141-1.882-.484-3.749-.769-5.619-.251-1.639.323-2.612,1.943-2.365a18.543,18.543,0,0,1,4.875,1.809c.342.159.5,1.01.5,1.543,0,1.717-.174,3.434-.171,5.149A2.314,2.314,0,0,1,849.13,189.349Z" transform="translate(-735.661 -131.842)"/><path class="b" d="M820.25,198.816l2.468.823a11.343,11.343,0,0,1,1-1.074c1.281-1.1,3.2-1.074,3.856.369a36.2,36.2,0,0,1,1.837,6.174c.061.243-.421.826-.751.928-1.128.353-2.3.559-3.524.838-.26-1.4-.757-2.606,1.126-2.964.248-.046.6-.963.469-1.3a10.793,10.793,0,0,0-1.315-2.008c-.464.354-1.253.649-1.329,1.071a14.56,14.56,0,0,0-.17,3.755c.119,1.415-.327,2.077-2.09,1.9a28.84,28.84,0,0,0-.293-3.6c-.131-.677-.745-1.245-1.021-1.913-.336-.817-.544-1.687-.808-2.535Z" transform="translate(-747.553 -122.298)"/><path class="b" d="M812.041,203.156c-.723-2.263-.693-2.321,1.3-2.785,4.185-.971,4.967-.446,5.728,3.849.65,3.67.65,3.669-2.962,4.469-.991.22-1.979.449-2.946.669-.783-2.4-.744-2.471,1.364-3.036a9.922,9.922,0,0,1,1.165-.286c.939-.134,1.474-.491,1.2-1.583-.257-1.013-.522-1.93-1.864-1.718-.507.08-1.01.195-1.521.266C813.011,203.073,812.509,203.108,812.041,203.156Z" transform="translate(-751.503 -121.24)"/><path class="b" d="M808.841,202.036c.567-.055.963-.079,1.354-.137,2.693-.391,3.529.327,3.551,3.069a6.157,6.157,0,0,1-4.13,5.954c-.464-1.36-.716-2.577.845-3.5a2.66,2.66,0,0,0,.967-1.369c.363-1.035.119-1.668-1.2-1.468-3.007.451-3.008.425-3.766-2.6-.125-.5-.467-1.028-.373-1.473a1.784,1.784,0,0,1,.967-1.114,1.323,1.323,0,0,1,1.131.562A10.134,10.134,0,0,1,808.841,202.036Z" transform="translate(-754.205 -121.523)"/><path class="b" d="M798.556,209.073a12.279,12.279,0,0,1,.487,2.349c.01.412-.437,1.159-.717,1.178a1.667,1.667,0,0,1-1.394-.658,19.46,19.46,0,0,1-.8-3.335c-.217-1.134-.786-1.584-1.935-1.214a3.27,3.27,0,0,1-1.5.277c-.478-.1-1.257-.553-1.248-.829a4.907,4.907,0,0,1,.739-1.766c.033-.065.214-.055.324-.085C797.016,203.731,797.434,204.012,798.556,209.073Z" transform="translate(-761.338 -119.093)"/><path class="b" d="M803.4,205.649l-3.155.484c-.946-2.081-.8-2.4,1.254-2.867,1.5-.342,2.995-.681,5-1.138a24.963,24.963,0,0,0-.491,2.922,18.145,18.145,0,0,0,.171,2.962,14.25,14.25,0,0,1,.411,2.011,1.466,1.466,0,0,1-.789,1.141,1.429,1.429,0,0,1-1.245-.64C804.094,208.994,803.8,207.411,803.4,205.649Z" transform="translate(-757.318 -120.181)"/><path class="b" d="M784.6,206.653c2.879-.769,4.017-.183,4.686,2.51.524,2.11.9,4.258,1.459,6.358.406,1.529-.2,2-1.864,1.866-.486-2.142-1.022-4.347-1.479-6.57-.219-1.068-.61-1.733-1.849-1.836C784.387,208.885,784.384,208.729,784.6,206.653Z" transform="translate(-764.729 -118.126)"/><path class="b" d="M787.729,206.014c3.362-.943,4.466-.344,5.185,2.5.28,1.111.524,2.232.774,3.352.177.8.442,1.589-.8,1.833s-1.27-.637-1.456-1.4c-.135-.556-.245-1.12-.353-1.683-.242-1.262-.428-2.441-2.206-2.519C788.473,208.08,788.131,206.784,787.729,206.014Z" transform="translate(-763.149 -118.488)"/><path class="b" d="M796.044,204.05c3.706-.678,4.5-.189,5.225,2.862a33.65,33.65,0,0,1,.774,3.688c.043.37-.464,1.129-.744,1.143a1.677,1.677,0,0,1-1.334-.711,9.387,9.387,0,0,1-.577-2.318c-.256-1.244-.362-2.495-2.22-2.435C796.831,206.289,796.45,204.892,796.044,204.05Z" transform="translate(-759.094 -119.375)"/><path class="b" d="M818.361,204.828l.3-2.415a6.7,6.7,0,0,1-1.857-1.363c-.246-.379.094-1.137.17-1.724a9.682,9.682,0,0,1,3.182.664c.982.6.942,3.867.039,4.652C819.83,204.956,819.038,204.775,818.361,204.828Z" transform="translate(-749.014 -121.548)"/></g><path class="c" d="M795.224,387.791l184.937-41.564a5.5,5.5,0,0,0,4.176-6.477l-53.093-256.3a4.408,4.408,0,0,0-5.212-3.423l-7.776,1.611c-1.623-.217-6.155-.61-10.485-.964l-.1-.5a4.186,4.186,0,0,0-4.948-3.251L720.361,114.695a4.861,4.861,0,0,0-3.776,5.746l53.279,257.2a8.588,8.588,0,0,0,4.383,5.844l13.979,3.364A10.167,10.167,0,0,0,795.224,387.791Z" transform="translate(-716.483 -76.831)"/><path class="c" d="M716.484,102.953l24.216,4.566L795.225,375.05" transform="translate(-716.483 -64.091)"/><line class="c" y1="38.521" x2="181.055" transform="translate(24.217 4.907)"/></g></svg>