<svg xmlns="http://www.w3.org/2000/svg" width="46" height="46" viewBox="0 0 46 46"><defs><style>.a{fill:#faf2ed;}.b{fill:#dfbba6;}.c{fill:none;stroke:#005885;stroke-linecap:round;stroke-linejoin:round;}</style></defs><g transform="translate(-569.867 -604)"><circle class="a" cx="23" cy="23" r="23" transform="translate(569.867 604)"/><g transform="translate(578.649 612.65)"><path class="b" d="M0,0V13.2L4.948,8.247,9.9,13.2l3.3-3.3L8.247,4.948,13.2,0ZM16.495,13.2l-3.3,3.3,4.948,4.948L13.2,26.391h13.2V13.2l-4.948,4.948Z" transform="translate(1.088 27.565) rotate(-90)"/><path class="c" d="M0,0V14.284L5.356,8.927l5.356,5.356,3.571-3.571L8.927,5.356,14.284,0ZM17.855,14.284l-3.571,3.571,5.356,5.356-5.356,5.356H28.567V14.284L23.211,19.64Z" transform="translate(0 28.568) rotate(-90)"/></g></g></svg>