<svg xmlns="http://www.w3.org/2000/svg" width="209.25" height="186.803" viewBox="0 0 209.25 186.803"><defs><style>.a,.b{fill:#faf2ed;}.a,.c{stroke:#015985;stroke-miterlimit:10;stroke-width:2px;}.c{fill:none;}</style></defs><g transform="translate(1.078 1)"><g transform="translate(10.126)"><rect class="a" width="47.166" height="5.8" rx="0.63" transform="translate(30.364 98.921) rotate(90)"/><path class="b" d="M10.31,49.92v3.53c0,1.695,2.6,3.036,5.8,3.036H122.1c3.2,0,5.766-1.342,5.766-3.036V49.92Z" transform="translate(21.896 125.01)"/><path class="b" d="M171.194,63.078H27.807a2.487,2.487,0,0,1-1.553-.459L2.959,44.226c-.971-.741,0-1.836,1.553-1.836h190.25c1.592,0,2.524,1.094,1.553,1.836l-23.3,18.393a2.5,2.5,0,0,1-1.825.459Z" transform="translate(-5.083 105.956)"/><ellipse class="b" cx="25.216" cy="25.63" rx="25.216" ry="25.63" transform="translate(68.084 4.519)"/><ellipse class="c" cx="29.662" cy="30.149" rx="29.662" ry="30.149" transform="translate(63.638)"/><path class="b" d="M52.571,18.12H53.2c20.051.019,36.3,16.547,36.3,36.928V96.777H16.24V55.048c0-20.395,16.266-36.928,36.331-36.928Z" transform="translate(38.854 44.544)"/><path class="c" d="M15.8,104.12V57.873c0-22.311,17.784-40.4,39.734-40.423h0C77.5,17.45,95.3,35.548,95.3,57.873V104.12" transform="translate(37.766 42.849)"/><path class="a" d="M6.1-.032,19.45-.1a6.673,6.673,0,0,1,6.764,6.681l0,.731a6.745,6.745,0,0,1-1.992,4.8,6.916,6.916,0,0,1-4.844,2.017L6.02,14.2A5.981,5.981,0,0,1-.044,8.213l.012-2.158a6.047,6.047,0,0,1,1.8-4.289A6.2,6.2,0,0,1,6.1-.032Z" transform="translate(43.368 80.462) rotate(110.36)"/><path class="c" d="M173.864,69.423H34.65a21.989,21.989,0,0,1-15.109-5.507L1.118,46.087c-1.85-1.765,0-4.307,2.968-4.307H204.2c2.7,0,4.24,2.259,2.621,3.813L187.239,64.621a19.454,19.454,0,0,1-13.374,4.8Z" transform="translate(-10.504 104.412)"/><path class="c" d="M133.854,49.61v5.931a5.354,5.354,0,0,1-2,3.739,5.9,5.9,0,0,1-4.2,1.274H16.44a5.625,5.625,0,0,1-6.08-5.013V49.61" transform="translate(22.021 124.225)"/></g></g></svg>