<svg xmlns="http://www.w3.org/2000/svg" width="207.808" height="187.627" viewBox="0 0 207.808 187.627"><defs><style>.a{fill:#f9ece5;}.b,.e{fill:#faf2ed;}.c,.d{fill:none;}.c,.d,.e{stroke:#004873;stroke-miterlimit:10;}.c{stroke-width:0.75px;}.d,.e{stroke-width:2px;}</style></defs><g transform="translate(1 1)"><path class="a" d="M557.973,80.663h-16.18V64.318c0-11.716,8.278-20.892,18.846-20.892h44.255c10.568,0,18.843,9.176,18.843,20.892V80.675H607.56V64.318c0-3.821-2.04-5.875-2.69-6.006H560.639c-.626.131-2.666,2.185-2.666,6.006Z" transform="translate(-479.978 -40.325)"/><path class="b" d="M16.026,0H183.744A16.026,16.026,0,0,1,199.77,16.026V119.7a16.026,16.026,0,0,1-16.026,16.026H16.026A16.026,16.026,0,0,1,0,119.7V16.026A16.026,16.026,0,0,1,16.026,0Z" transform="translate(3.272 44.916)"/><g transform="translate(62.048)"><path class="c" d="M557.992,82.91H541.858V65.2c0-12.692,8.255-22.637,18.791-22.637h44.129c10.536,0,18.791,9.945,18.791,22.637V82.925H607.435V65.2c0-4.136-2.034-6.364-2.682-6.507l-44.1,0c-.623.14-2.657,2.367-2.657,6.5Z" transform="translate(-541.858 -42.56)"/></g><path class="c" d="M557.992,82.91H541.858V65.2c0-12.692,8.255-22.637,18.791-22.637h44.129c10.536,0,18.791,9.945,18.791,22.637V82.925H607.435V65.2c0-4.136-2.034-6.364-2.682-6.507l-44.1,0c-.623.14-2.657,2.367-2.657,6.5Z" transform="translate(-479.811 -42.56)"/><rect class="d" width="205.808" height="145.276" rx="23" transform="translate(0 40.351)"/><path class="e" d="M557.992,82.91H541.858V65.2c0-12.692,8.255-22.637,18.791-22.637h44.129c10.536,0,18.791,9.945,18.791,22.637V82.925H607.435V65.2c0-4.136-2.034-6.364-2.682-6.507l-44.1,0c-.623.14-2.657,2.367-2.657,6.5Z" transform="translate(-479.811 -42.56)"/></g></svg>