<svg xmlns="http://www.w3.org/2000/svg" width="209.066" height="187.629" viewBox="0 0 209.066 187.629"><defs><style>.a,.c{fill:none;stroke:#004873;stroke-linejoin:round;stroke-miterlimit:10;stroke-width:2px;}.a{stroke-linecap:round;}.b{fill:#faf2ed;}</style></defs><g transform="translate(1 1.002)"><path class="a" d="M811.1,44.212h7.4a9.521,9.521,0,0,1,9.365,9.67V189.291a10.428,10.428,0,0,1-9.522,10.559c-19.722,1.381-66.446,6.377-94.124,23.212l2-161.76Z" transform="translate(-620.801 -37.435)"/><path class="a" d="M714.339,44.212h-7.417a9.528,9.528,0,0,0-9.39,9.661V189.145a10.432,10.432,0,0,0,9.548,10.548c19.775,1.38,66.119,6.551,93.871,23.368V206.686l-1.5-145.4Z" transform="translate(-697.532 -37.435)"/><path class="b" d="M726.6,61.346S775.656,44.8,804.163,42.9a5.516,5.516,0,0,1,5.844,5.522V177.132a7.841,7.841,0,0,1-6.123,7.63c-17.991,4.066-69.959,16.55-78.337,26.783Z" transform="translate(-622.832 -40.974)"/><path class="b" d="M786.973,61.3s-49.552-16.506-78.344-18.4a5.54,5.54,0,0,0-5.9,5.507V176.792a7.838,7.838,0,0,0,6.185,7.612c18.171,4.059,70.66,16.51,79.122,26.717Z" transform="translate(-683.682 -40.974)"/><path class="c" d="M724.314,62.132s52.773-17.764,82.212-19.755a5.733,5.733,0,0,1,6.034,5.786v135a8.188,8.188,0,0,1-6.325,8c-18.578,4.268-72.251,17.361-80.9,28.092Z" transform="translate(-621.912 -42.364)"/><path class="c" d="M788.186,62.214s-50.792-17.847-80.154-19.838a5.725,5.725,0,0,0-6.022,5.786v135a8.184,8.184,0,0,0,6.308,8c18.533,4.268,72.062,17.361,80.693,28.092Z" transform="translate(-685.592 -42.364)"/></g></svg>