<svg xmlns="http://www.w3.org/2000/svg" width="189.658" height="106.074" viewBox="0 0 189.658 106.074"><defs><style>.a,.b,.c,.d,.e{fill:#004873;}.b{font-size:15px;font-family:RoundedMplus1c-Light, 'Rounded Mplus \31 c';font-weight:300;}.c{stroke:#003c7f;stroke-width:0.945px;}.c,.d{stroke-miterlimit:10;}.d,.e{stroke:#fff;}.d{stroke-width:0.5px;}.e{stroke-linecap:round;stroke-linejoin:round;stroke-width:0.439px;}</style></defs><g transform="translate(-1125.31 -36.462)"><g transform="translate(1125.31 79.474)"><path class="a" d="M1129.944,104.857a.694.694,0,0,1-.534.674,5.837,5.837,0,0,1-1.8.2,5.669,5.669,0,0,1-1.782-.2.689.689,0,0,1-.521-.674V66.643a.689.689,0,0,1,.521-.672,5.628,5.628,0,0,1,1.782-.2,5.794,5.794,0,0,1,1.8.2.693.693,0,0,1,.534.672Z" transform="translate(-1125.31 -56.501)"/><path class="a" d="M1137.2,94.83a.7.7,0,0,1-.536.672,5.777,5.777,0,0,1-1.8.2,5.64,5.64,0,0,1-1.782-.2.694.694,0,0,1-.521-.672V66.643a.691.691,0,0,1,.521-.672,5.64,5.64,0,0,1,1.782-.2,5.777,5.777,0,0,1,1.8.2.693.693,0,0,1,.536.672Z" transform="translate(-1119.568 -56.501)"/><path class="a" d="M1158.118,94.83a.694.694,0,0,1-.521.672,5.626,5.626,0,0,1-1.782.2,5.778,5.778,0,0,1-1.8-.2.7.7,0,0,1-.534-.672V77.935a28.93,28.93,0,0,0-.26-4.666,4.328,4.328,0,0,0-.948-2.142,3.935,3.935,0,0,0-1.989-1.093,16.055,16.055,0,0,0-3.772-.337q-3.208,0-7.842.364a.6.6,0,0,1-.632-.378,3.753,3.753,0,0,1-.192-1.442,4.63,4.63,0,0,1,.177-1.569.788.788,0,0,1,.7-.476,71.064,71.064,0,0,1,7.926-.419,21.791,21.791,0,0,1,5.664.6,7.733,7.733,0,0,1,3.455,1.863,7.065,7.065,0,0,1,1.811,3.4,26.255,26.255,0,0,1,.534,6.011Z" transform="translate(-1115.388 -56.501)"/><path class="a" d="M1158.425,94.83a.7.7,0,0,1-.535.672,5.778,5.778,0,0,1-1.8.2,5.627,5.627,0,0,1-1.782-.2.694.694,0,0,1-.521-.672V66.643a.691.691,0,0,1,.521-.672,5.626,5.626,0,0,1,1.782-.2,5.778,5.778,0,0,1,1.8.2.7.7,0,0,1,.535.672Z" transform="translate(-1102.777 -56.501)"/><path class="a" d="M1182.713,67.83a4.575,4.575,0,0,1-.177,1.485.635.635,0,0,1-.618.476H1179.7a1.594,1.594,0,0,0-1.564,1.3,41.341,41.341,0,0,0-.713,7.215V94.755a.7.7,0,0,1-.534.672,5.792,5.792,0,0,1-1.8.2,5.674,5.674,0,0,1-1.77-.2.7.7,0,0,1-.533-.672V78.419a39.764,39.764,0,0,1,.74-7.1,1.283,1.283,0,0,0-1.247-1.53h-12.411a.64.64,0,0,1-.6-.476,5.806,5.806,0,0,1,0-2.97.638.638,0,0,1,.6-.475h22.05a.634.634,0,0,1,.618.475A4.575,4.575,0,0,1,1182.713,67.83Z" transform="translate(-1098.597 -56.427)"/><path class="a" d="M1201.4,77.493a13.956,13.956,0,0,1-.863,4.469,42.1,42.1,0,0,1-2.728,5.981l-5.872,10.927a1.461,1.461,0,0,1-.958.729,8.044,8.044,0,0,1-2.056.2,5.6,5.6,0,0,1-1.619-.154.591.591,0,0,1-.439-.6,1.741,1.741,0,0,1,.219-.7l5.952-10.925a54.123,54.123,0,0,0,2.783-5.787,10.91,10.91,0,0,0,.865-3.822,3.157,3.157,0,0,0-2.536-3.432,12.454,12.454,0,0,0-3.525-.407h-8.8a1.6,1.6,0,0,1-1.221-.448,1.72,1.72,0,0,1-.424-1.232V61.467a.693.693,0,0,1,.507-.674,5.677,5.677,0,0,1,1.8-.2,5.839,5.839,0,0,1,1.811.2.7.7,0,0,1,.521.674v7.656a.918.918,0,0,0,.917.919h5.418a20.327,20.327,0,0,1,4.636.46,8.666,8.666,0,0,1,3.194,1.388,5.515,5.515,0,0,1,1.838,2.311A8.394,8.394,0,0,1,1201.4,77.493Z" transform="translate(-1081.901 -60.598)"/><path class="a" d="M1215.448,79.672q0,5.965-.824,14.176a1.944,1.944,0,0,1-.521,1.261,1.672,1.672,0,0,1-1.207.419h-18.348a.632.632,0,0,1-.616-.475,4.412,4.412,0,0,1-.179-1.458,4.482,4.482,0,0,1,.192-1.54.642.642,0,0,1,.6-.476h13.574a2.285,2.285,0,0,0,2.271-2.128q.419-6,.419-9.472a23.3,23.3,0,0,0-.672-6.71A4.515,4.515,0,0,0,1207.8,70.5a13.222,13.222,0,0,0-5.349-.8,56.891,56.891,0,0,0-6.775.476.6.6,0,0,1-.645-.392,3.992,3.992,0,0,1-.179-1.429,4.578,4.578,0,0,1,.179-1.569.841.841,0,0,1,.7-.5,47.44,47.44,0,0,1,6.939-.5,19.72,19.72,0,0,1,7.79,1.2,7.232,7.232,0,0,1,3.84,4.048Q1215.447,73.873,1215.448,79.672Z" transform="translate(-1071.156 -56.501)"/><path class="a" d="M1214.8,82.612a.7.7,0,0,1-.536.674,5.764,5.764,0,0,1-1.8.2,5.616,5.616,0,0,1-1.782-.2.692.692,0,0,1-.521-.674V66.643a.691.691,0,0,1,.521-.672,5.628,5.628,0,0,1,1.782-.2,5.777,5.777,0,0,1,1.8.2.7.7,0,0,1,.536.672Z" transform="translate(-1058.167 -56.501)"/><path class="a" d="M1222.952,69.624a1.028,1.028,0,0,0,1.639.351,19.208,19.208,0,0,1,4.072-3.045,10.438,10.438,0,0,1,4.965-1.358,8.468,8.468,0,0,1,5.306,1.569,9.079,9.079,0,0,1,3,4.8,30.321,30.321,0,0,1,.96,8.419q0,3.168-.177,6.753t-.453,6.893a1.985,1.985,0,0,1-.507,1.261,1.671,1.671,0,0,1-1.222.419H1228.2a.659.659,0,0,1-.616-.462,3.905,3.905,0,0,1-.208-1.5,4.368,4.368,0,0,1,.193-1.512.639.639,0,0,1,.6-.476h8.243a1.546,1.546,0,0,0,1.53-1.451q.317-5.382.319-9.56a32.119,32.119,0,0,0-.534-6.683,6.408,6.408,0,0,0-1.7-3.418,4.633,4.633,0,0,0-3.221-1.05,7.212,7.212,0,0,0-3.91,1.331h0a11.719,11.719,0,0,0-5.137,7.864l-2.721,16.218a.806.806,0,0,1-.616.672,6.066,6.066,0,0,1-1.823.2,5.754,5.754,0,0,1-1.743-.183.6.6,0,0,1-.453-.684l3.21-19.166a5.206,5.206,0,0,0,.029-1.764,10.507,10.507,0,0,0-.686-2.046l-1.867-4.229a3.59,3.59,0,0,1-.3-.982.579.579,0,0,1,.179-.518,1.416,1.416,0,0,1,.686-.265,8.648,8.648,0,0,1,1.411-.084,8.206,8.206,0,0,1,1.879.14,1.152,1.152,0,0,1,.754.7Z" transform="translate(-1053.239 -56.662)"/></g><text class="b" transform="translate(1150.411 137.536)"><tspan x="0" y="0">ייעוץ ואבחון גרפולוגי</tspan></text><g transform="translate(1188.87 36.742)"><path class="c" d="M1174.63,46.459" transform="translate(-1149.846 -29.053)"/><path class="d" d="M1172.632,81.435l-3.778,4.741-8.06,3.96s1.757-6.393,2.676-7.914,35.2-43.767,35.2-43.767a4.739,4.739,0,0,1,4.686-1.585,2.779,2.779,0,0,1,2.259,3.025c-.057.17-15.621,19.734-26.478,33.367Z" transform="translate(-1160.794 -36.742)"/><path class="d" d="M1184.9,54.494c-1.988,2.5-3.937,4.947-5.757,7.231l-6.508,8.172-3.778,4.741-8.06,3.96s1.757-6.393,2.676-7.914c.416-.688,7.647-9.7,15.45-19.361" transform="translate(-1160.794 -25.203)"/><path class="d" d="M1190.187,43.858s-4.876-4.018-8.458-2.173-13.227,8.216-17.794,13.3c-3.953,4.4.606,20.759.606,20.759l5.864-7.469s-.089-6.058,1.642-9.266c1.315-2.44,6.633-5.211,9.549-6.1a6.4,6.4,0,0,1,7.358,2.28s4.279,8.125-4.985,12.275c-7.03,3.151-11.021,3.468-12.779,5.768a3.548,3.548,0,0,0,.53,4.813c1.576,1.279,3.943,1.026,6.866-.154a67.227,67.227,0,0,1,14.767-3.457c2.708-.217,22.281-1.467,22.281-1.467V58.383s-5.075-.67-18.931-10.971Z" transform="translate(-1159.585 -33.214)"/><path class="d" d="M1170.913,62.862c9.458-11.718,19.754-24.406,19.754-24.406a4.739,4.739,0,0,1,4.686-1.585,2.778,2.778,0,0,1,2.259,3.025c-.048.142-11.482,14.511-21.361,26.922" transform="translate(-1152.787 -36.742)"/><path class="e" d="M1192.7,49.82l3.172.156a1.881,1.881,0,0,1,1.85,1.051,23.366,23.366,0,0,1,.53,15.256,4.824,4.824,0,0,1-4.868,3.48h0a2.273,2.273,0,0,1-2.071-2.943c1.135-3.581,2.535-10.008.4-15.664A.991.991,0,0,1,1192.7,49.82Z" transform="translate(-1136.728 -26.395)"/></g></g></svg>