<svg xmlns="http://www.w3.org/2000/svg" width="64.326" height="54.318" viewBox="0 0 64.326 54.318">
  <g id="Group_106" data-name="Group 106" transform="translate(-1595.675 -30.638)">
    <path id="Path_619" data-name="Path 619" d="M83.853,24.294v2.183A31.277,31.277,0,0,1,82.7,33.506c-5.324.345-19.459,1.245-21.8,1.436a72.494,72.494,0,0,0-16.069,3.831c-2.681,1.092-4.577,1.245-5.861.575h0a3.027,3.027,0,0,1-.5-.249,1.456,1.456,0,0,1-.134-.345,2.317,2.317,0,0,1-.536-.881,2.815,2.815,0,0,1,.345-2.662A7.776,7.776,0,0,1,41.6,33.1h0q.785-.306,1.724-.632l.651-.249,1-.345h0c1.8-.632,3.831-1.417,6.4-2.528a11.089,11.089,0,0,0,6.454-6.32A10.706,10.706,0,0,0,57.614,16c.632-.8,1.245-1.551,1.915-2.3s1.149-1.436,1.685-2.126,1.053-1.322,1.551-1.915.958-1.226,1.417-1.781c10.4,7.661,16.241,10.419,18.885,11.377A18.751,18.751,0,0,1,83.853,24.294Z" transform="translate(1569.241 37.852)" fill="#015985"/>
    <path id="Path_620" data-name="Path 620" d="M60.5,6.575,58.932,8.49h0L57.285,10.5h0l-1.7,2.088h0l-1.743,2.145a11.166,11.166,0,0,0-1.456.326c-2.835.862-9.1,3.831-10.764,6.991A25.339,25.339,0,0,0,39.7,32.086l-3.026,3.831-.441.555-1.4,1.743c-1.36-5.65-3.2-16.3-.383-19.459a87.317,87.317,0,0,1,18.75-14C55.714,3.625,59.047,5.54,60.5,6.575Z" transform="translate(1564.993 34.675)" fill="#015985"/>
    <path id="Path_621" data-name="Path 621" d="M77.248,2.031l-.345.441v.1L74.625,5.44l-.115.153-.421.517-5.171,6.474c-.211.23-.421.5-.613.747s-.4.5-.594.766l-4.137,5.19-.1.134-1.551,1.915-.613.766a1.455,1.455,0,0,0-.153.211l-.441.536h0l-1.3,1.628c-.383.479-.766.977-1.168,1.456a2.491,2.491,0,0,1-.345.441l-1.3,1.647-1.475,1.915-.555.709h0l-3.831,4.769-1.628,2.03-.536.192c-3.256,1.149-5.42,1.915-6.742,3.62a4.807,4.807,0,0,0-.057,5.478l-3.5,4.405L31.78,54.317a42.615,42.615,0,0,1,2.164-6.148L34.078,48l.172-.23.345-.46c.134-.192.326-.421.555-.709h0l.5-.632.211-.268.153-.192a6.03,6.03,0,0,1,.46-.575l.134-.153h0l.747-.938.172-.23L39.077,41.7l.594-.747.632-.785.4-.517.345-.421.345-.421,1.015-1.245L46.24,32.79l.575-.709,1.915-2.3,1.724-2.145v-.115l5.42-6.723.785-.958c.23-.306.479-.594.709-.881l.862-1.073,3.62-4.482q.69-.9,1.379-1.724l.613-.747.613-.747,7.01-8.7A4.616,4.616,0,0,1,72.25.786l.306-.172a3.658,3.658,0,0,1,.613-.306l.364-.134L74.184,0h.326a4.29,4.29,0,0,1,1,.1,2.891,2.891,0,0,1,.536.192,2.126,2.126,0,0,1,.69.5h0a3.026,3.026,0,0,1,.287.46v.134h0a2.659,2.659,0,0,1,0,.441v.1a.211.211,0,0,1,.23.115Z" transform="translate(1563.895 30.639)" fill="#015985"/>
    <path id="Path_629" data-name="Path 629" d="M67.543,29.428a4.194,4.194,0,0,1-4.233,3.026,1.494,1.494,0,0,1-1.168-.651,1.436,1.436,0,0,1-.192-1.245h0a3.485,3.485,0,0,1,.287-.977c.115-.326.23-.881.345-1.36a33.153,33.153,0,0,0,.958-6.55,21.067,21.067,0,0,0,0-2.2,20.57,20.57,0,0,0-1.168-6.359h.766l2.624.134c.938,0,1.073.4,1.13.536a24.017,24.017,0,0,1,.651,15.648Z" transform="translate(1591.45 42.638)" fill="#015985"/>
  </g>
</svg>
