<svg xmlns="http://www.w3.org/2000/svg" width="262.767" height="75.181" viewBox="0 0 262.767 75.181"><defs><style>.a{fill:#015985;}</style></defs><g transform="translate(0 23)"><path class="a" d="M4.961,69.589a.766.766,0,0,1-.575.728,6.321,6.321,0,0,1-1.915.211,6.225,6.225,0,0,1-1.915-.211A.766.766,0,0,1,0,69.589V28.736A.766.766,0,0,1,.555,28.1a6.224,6.224,0,0,1,1.915-.211,6.32,6.32,0,0,1,1.915.211.766.766,0,0,1,.575.728Z" transform="translate(0 -18.353)"/><path class="a" d="M9.922,58.83a.728.728,0,0,1-.575.709,5.746,5.746,0,0,1-1.915.211,5.746,5.746,0,0,1-1.915-.211A.728.728,0,0,1,5,58.83V28.722a.747.747,0,0,1,.555-.709A6.225,6.225,0,0,1,7.471,27.8a6.321,6.321,0,0,1,1.915.211.747.747,0,0,1,.575.709Z" transform="translate(4.576 -18.435)"/><path class="a" d="M31.656,58.928a.747.747,0,0,1-.555.728,6.091,6.091,0,0,1-1.915.211,6.224,6.224,0,0,1-1.915-.211.766.766,0,0,1-.575-.728V40.867a29.572,29.572,0,0,0-.287-4.98,4.578,4.578,0,0,0-1.015-2.3,4.08,4.08,0,0,0-2.126-1.168,16.453,16.453,0,0,0-4.022-.364q-3.447,0-8.389.4a.632.632,0,0,1-.651-.46,4,4,0,0,1-.211-1.532,4.807,4.807,0,0,1,.192-1.685.843.843,0,0,1,.747-.5,74.023,74.023,0,0,1,8.465-.46,22.983,22.983,0,0,1,6.071.651,8.255,8.255,0,0,1,3.7,1.915,7.661,7.661,0,0,1,1.915,3.639,29.054,29.054,0,0,1,.555,6.416Z" transform="translate(9.139 -18.418)"/><path class="a" d="M28.671,58.863a.766.766,0,0,1-.575.728,6.454,6.454,0,0,1-1.915.211,6.09,6.09,0,0,1-1.915-.211.747.747,0,0,1-.555-.728V28.736a.747.747,0,0,1,.555-.632,6.091,6.091,0,0,1,1.915-.211A6.454,6.454,0,0,1,28.1,28.1a.766.766,0,0,1,.575.728Z" transform="translate(21.701 -18.353)"/><path class="a" d="M53.941,30.007a4.673,4.673,0,0,1-.192,1.59.69.69,0,0,1-.67.517H50.7a1.7,1.7,0,0,0-1.666,1.379,45.258,45.258,0,0,0-.766,7.661V58.736a.766.766,0,0,1-.555.728,6.455,6.455,0,0,1-1.915.211,6.244,6.244,0,0,1-1.915-.211.766.766,0,0,1-.555-.728V41.384a41.772,41.772,0,0,1,.785-7.661,1.379,1.379,0,0,0-1.341-1.628H29.5a.67.67,0,0,1-.632-.517,6.11,6.11,0,0,1,0-3.179.67.67,0,0,1,.632-.5H53.08a.69.69,0,0,1,.67.5,4.673,4.673,0,0,1,.192,1.609Z" transform="translate(26.232 -18.34)"/><path class="a" d="M71.267,40.707a14.863,14.863,0,0,1-.919,4.769,45.836,45.836,0,0,1-2.93,6.4L61.135,63.5a1.59,1.59,0,0,1-1.015.785,8.926,8.926,0,0,1-2.2.211,5.746,5.746,0,0,1-1.724-.172.632.632,0,0,1-.479-.651,1.915,1.915,0,0,1,.23-.747l6.378-11.683a57.788,57.788,0,0,0,2.969-6.129,11.7,11.7,0,0,0,.919-4.08,3.352,3.352,0,0,0-2.7-3.677,13.407,13.407,0,0,0-3.831-.421H50.333a1.8,1.8,0,0,1-1.322-.479,1.915,1.915,0,0,1-.441-1.322V23.642a.747.747,0,0,1,.536-.728,6.148,6.148,0,0,1,1.915-.211,6.282,6.282,0,0,1,1.915.211.747.747,0,0,1,.555.728V31.82a1,1,0,0,0,1,1h5.746a22.1,22.1,0,0,1,4.961.479A9.327,9.327,0,0,1,68.6,34.789a5.746,5.746,0,0,1,1.915,2.471A8.983,8.983,0,0,1,71.267,40.707Z" transform="translate(44.453 -23.103)"/><path class="a" d="M86.007,42.74q0,6.378-.881,15.15a2.126,2.126,0,0,1-.555,1.36,1.915,1.915,0,0,1-1.3.441H63.656a.67.67,0,0,1-.651-.5,4.616,4.616,0,0,1-.192-1.571A4.979,4.979,0,0,1,63,55.975a.728.728,0,0,1,.651-.5H78.174A2.452,2.452,0,0,0,80.606,53.2c.287-4.271.441-7.661.441-10.132a24.9,24.9,0,0,0-.632-7.221,4.9,4.9,0,0,0-2.509-2.969,14.077,14.077,0,0,0-5.746-.862,59.832,59.832,0,0,0-7.24.517.613.613,0,0,1-.69-.421,4.156,4.156,0,0,1-.192-1.532,4.807,4.807,0,0,1,.192-1.685.881.881,0,0,1,.747-.536,52.555,52.555,0,0,1,7.412-.536A21.413,21.413,0,0,1,80.721,29.1a7.8,7.8,0,0,1,4.118,4.348A26.354,26.354,0,0,1,86.007,42.74Z" transform="translate(57.485 -18.433)"/><path class="a" d="M82.231,45.844a.766.766,0,0,1-.575.728,8.81,8.81,0,0,1-3.831,0,.766.766,0,0,1-.555-.728V28.778a.766.766,0,0,1,.555-.728,8.81,8.81,0,0,1,3.831,0,.766.766,0,0,1,.575.728Z" transform="translate(70.723 -18.395)"/><path class="a" d="M89.094,31.975a1.092,1.092,0,0,0,1.743.383A20,20,0,0,1,95.2,29.1a10.974,10.974,0,0,1,5.305-1.456,9.1,9.1,0,0,1,5.746,1.666,9.806,9.806,0,0,1,3.218,5.152,33.019,33.019,0,0,1,1.015,9c0,2.26,0,4.654-.192,7.221s-.287,5-.479,7.355a2.107,2.107,0,0,1-.536,1.36,1.915,1.915,0,0,1-1.3.441H94.706a.689.689,0,0,1-.67-.5,4.1,4.1,0,0,1-.211-1.59,4.845,4.845,0,0,1,.192-1.628.709.709,0,0,1,.651-.5h8.81a1.666,1.666,0,0,0,1.647-1.551c.211-3.831.326-7.24.326-10.228a34.284,34.284,0,0,0-.517-7.144,6.914,6.914,0,0,0-1.915-3.658,5.018,5.018,0,0,0-3.447-1.111A7.661,7.661,0,0,0,95.4,33.354h0a12.488,12.488,0,0,0-5.439,8.389L87.045,59.076a.9.9,0,0,1-.67.728,6.551,6.551,0,0,1-1.915.211,6.014,6.014,0,0,1-1.915-.211.632.632,0,0,1-.479-.728l3.428-20.493a5.746,5.746,0,0,0,0-1.915,11.492,11.492,0,0,0-.728-2.183L82.85,29.944a3.831,3.831,0,0,1-.306-1.034.575.575,0,0,1,.192-.555,1.36,1.36,0,0,1,.728-.287,9.576,9.576,0,0,1,1.513-.1,8.772,8.772,0,0,1,1.915.153,1.264,1.264,0,0,1,.824.747Z" transform="translate(75.102 -18.584)"/><path class="a" d="M49.915,10.9c-.575.747-1.187,1.494-1.915,2.3h0Z" transform="translate(43.933 -33.9)"/><path class="a" d="M83.853,24.294v2.183A31.277,31.277,0,0,1,82.7,33.506c-5.324.345-19.459,1.245-21.8,1.436a72.494,72.494,0,0,0-16.069,3.831c-2.681,1.092-4.577,1.245-5.861.575h0a3.027,3.027,0,0,1-.5-.249,1.456,1.456,0,0,1-.134-.345,2.317,2.317,0,0,1-.536-.881,2.815,2.815,0,0,1,.345-2.662A7.776,7.776,0,0,1,41.6,33.1h0q.785-.306,1.724-.632l.651-.249,1-.345h0c1.8-.632,3.831-1.417,6.4-2.528a11.089,11.089,0,0,0,6.454-6.32A10.706,10.706,0,0,0,57.614,16c.632-.8,1.245-1.551,1.915-2.3s1.149-1.436,1.685-2.126,1.053-1.322,1.551-1.915.958-1.226,1.417-1.781c10.4,7.661,16.241,10.419,18.885,11.377A18.751,18.751,0,0,1,83.853,24.294Z" transform="translate(172.008 -5.649)"/><path class="a" d="M60.5,6.575,58.932,8.49h0L57.285,10.5h0l-1.7,2.088h0l-1.743,2.145a11.166,11.166,0,0,0-1.456.326c-2.835.862-9.1,3.831-10.764,6.991A25.339,25.339,0,0,0,39.7,32.086l-3.026,3.831-.441.555-1.4,1.743c-1.36-5.65-3.2-16.3-.383-19.459a87.317,87.317,0,0,1,18.75-14C55.714,3.625,59.047,5.54,60.5,6.575Z" transform="translate(167.76 -8.825)"/><path class="a" d="M77.248,2.031l-.345.441v.1L74.625,5.44l-.115.153-.421.517-5.171,6.474c-.211.23-.421.5-.613.747s-.4.5-.594.766l-4.137,5.19-.1.134-1.551,1.915-.613.766a1.455,1.455,0,0,0-.153.211l-.441.536h0l-1.3,1.628c-.383.479-.766.977-1.168,1.456a2.491,2.491,0,0,1-.345.441l-1.3,1.647-1.475,1.915-.555.709h0l-3.831,4.769-1.628,2.03-.536.192c-3.256,1.149-5.42,1.915-6.742,3.62a4.807,4.807,0,0,0-.057,5.478l-3.5,4.405L31.78,54.317a42.615,42.615,0,0,1,2.164-6.148L34.078,48l.172-.23.345-.46c.134-.192.326-.421.555-.709h0l.5-.632.211-.268.153-.192a6.03,6.03,0,0,1,.46-.575l.134-.153h0l.747-.938.172-.23L39.077,41.7l.594-.747.632-.785.4-.517.345-.421.345-.421,1.015-1.245L46.24,32.79l.575-.709,1.915-2.3,1.724-2.145v-.115l5.42-6.723.785-.958c.23-.306.479-.594.709-.881l.862-1.073,3.62-4.482q.69-.9,1.379-1.724l.613-.747.613-.747,7.01-8.7A4.616,4.616,0,0,1,72.25.786l.306-.172a3.658,3.658,0,0,1,.613-.306l.364-.134L74.184,0h.326a4.29,4.29,0,0,1,1,.1,2.891,2.891,0,0,1,.536.192,2.126,2.126,0,0,1,.69.5h0a3.026,3.026,0,0,1,.287.46v.134h0a2.659,2.659,0,0,1,0,.441v.1a.211.211,0,0,1,.23.115Z" transform="translate(166.662 -12.861)"/><path class="a" d="M41.09,14.08Z" transform="translate(37.608 -30.989)"/><path class="a" d="M45.436,14.65l-1.341,1.7-.115.134h0Z" transform="translate(40.253 -30.468)"/><path class="a" d="M44.275,15.61l-.575.709.555-.709Z" transform="translate(39.997 -29.589)"/><path class="a" d="M44.055,15.54l-.115.134h0Z" transform="translate(40.217 -29.653)"/><path class="a" d="M44.265,15.61l-.555.709h0Z" transform="translate(40.006 -29.589)"/><path class="a" d="M47.292,11.55l-.172.211a1.455,1.455,0,0,1,.153-.211Z" transform="translate(43.127 -33.305)"/><path class="a" d="M47.8,11.15l-.594.766h0Z" transform="translate(43.21 -33.671)"/><path class="a" d="M67.543,29.428a4.194,4.194,0,0,1-4.233,3.026,1.494,1.494,0,0,1-1.168-.651,1.436,1.436,0,0,1-.192-1.245h0a3.485,3.485,0,0,1,.287-.977c.115-.326.23-.881.345-1.36a33.153,33.153,0,0,0,.958-6.55,21.067,21.067,0,0,0,0-2.2,20.57,20.57,0,0,0-1.168-6.359h.766l2.624.134c.938,0,1.073.4,1.13.536a24.017,24.017,0,0,1,.651,15.648Z" transform="translate(194.217 -0.862)"/></g></svg>