<svg xmlns="http://www.w3.org/2000/svg" width="591.319" height="909.849" viewBox="0 0 591.319 909.849"><defs><style>.a{fill:#f9ece5;}.b{fill:#faf2ed;}.c,.e{fill:none;}.c,.d,.e,.f{stroke:#023e5d;stroke-width:2px;}.d{fill:#ce9d81;}.d,.e,.f{stroke-miterlimit:10;}.f{fill:#fff;}</style></defs><g transform="translate(-551.021 -208.885)"><path class="a" d="M618.816,315.145a49.263,49.263,0,0,0,36.476,17.8c22.57.661,28.527-2.4,46.034-11.7,7.073-3.759-18.916-12.908-33.206-12.908s-10.845,1.321-21.279-1.625c-7.346-2.077-33.3-.222-31.588,3.5S618.816,315.145,618.816,315.145Z" transform="translate(149.421 227.537)"/><path class="b" d="M633.134,615.646c-2.572-.9-31.743,11.074-35.647-15.184s5.391-56.191-6.132-56-25.641-18.73-17.092-31.669,25.456-9.571,24.711-16.081-7.245-8.249-6.5-15.777,15.052-13.9,13.38-20.082-12.079-24.593-8.179-39.908,1.861-30.573-6.318-59.731,27.5-38.809,28.618-45.184,7.43-37.653,20.625-45.184,21.737-11,24.9-24.522,30.1-4.248,40.879-7.723,29.916-10.039,46.455-20.082,40.134-13.711,65.59,3.091,27.873,6.179,34.747,6.564,28.429,9.463,32.519,24.33,25.27,8.3,30.843,14.867,18.211,11.007,22.857,52.523,40.876,44.992,49.055,58.895,25.641,60.823,13.747,83.8-4.46,46.536-.742,59.087S999.586,576.516,968.925,574s-25.641,15.45-38.462,25.105,12.265,31.666,8.92,39.969-15.423,33.6-34.19,33.793-46.826-10.427-49.425-26.262-7.619-15.834-15.609-16.8-17.146-33.162-8.573-44.1c0,0,50.43-38.01,54.394-94.451s-6.965-41.752-12.4-81.536-14.948-36.382-25.8-67.434-36.345,10.838-83.8-5.212h0s-69.261,87.172-91.062,97.35,15.268,37.467,10.36,45.191-43.111,82.156-44.658,103.91S633.134,615.646,633.134,615.646Z" transform="translate(46.201 0.268)"/><path class="c" d="M655.774,581.059c-35.785-20.942-103.617,17.591-103.617,17.591S601.629,821.28,662.7,824.371s95.853-58.885,91.986-135.347-22.415-178.5-15.46-205.551,14.223-77.3,8.812-97.4a101.073,101.073,0,0,1-2.063-18.053c-.256-10.2,12.491-10,12.491-10s8.23-.009,10.892,2.088,6.378,5.737,1.355,16.43-3.27,24.222-3.27,24.222c1.082,4.764,8.307,8.264,12.641-1.877,0,0,1.2-4.315,2.8-10.562,2.372-9.28,5.646-23.073,6.191-30.3.885-11.752,2.511-19.873-12.369-22.968s-31.5-.964-37.686,2.515" transform="translate(0 293.25)"/><path class="c" d="M662.476,411.4c3.735-2.06,14.1-9.8,39.81-6.7,21.367,2.576,25.894,8.5,35.806,23.706s19.334,19.9,19.334,19.9c9.679.772,9.1-12.949,1.177-22.418,0,0-18.558-23.231-29.252-31.369-8.633-6.57-16.343-12.3-26.258-12.251s-50,15.406-50,15.406c-9.47,8.5-3.094-38.263,2.9-50.248s18.744-23.962,19.711-29.953,1.544-23.578-3.867-22.419-35.364,40.97-39.811,53.531-11.4,52.371-14.1,55.079-6.766,12.369-4.255,37.3.58,106.867-3.863,129.093-31.5,200.788-31.5,228.23,5.023,66.092,5.023,66.092" transform="translate(61.983 201.832)"/><path class="c" d="M620.836,394.316s-2.634,7.661,3.262,10.945,12.362-1.222,13.626-18.164c0,0,.887-47.315-8.5-56.09" transform="translate(162.182 287.203)"/><path class="c" d="M609.262,486.468s86.029,85.541,172.093,58.227,99.976-63.389,92.762-113.377-13.175-108.65-13.175-108.65,37.909-14,75.528,26.713,62.175,61.841,69.48,101.008" transform="translate(135.407 261.917)"/><path class="c" d="M604.3,306.119s11.2,44.021,25.149,52.516" transform="translate(123.651 228.188)"/><path class="c" d="M629.92,432.7s3.763,3.435,13.552,3.435,66.224-42.575,78.073-63.9c5.512-9.915,28.6-59.04,27.829-83.373" transform="translate(184.391 187.271)"/><path class="c" d="M629.92,302.178s3.271-11.523,12-5.762" transform="translate(191.512 201.355)"/><path class="c" d="M622.408,293.388s8.533-.332,10.12,9.788" transform="translate(166.579 197.997)"/><path class="c" d="M632.757,356.955s22.283-5.67,13.266-29.889-5.559-51.535-5.559-51.535" transform="translate(191.118 155.656)"/><path class="c" d="M643.716,274.536s-9.021,41.456-15.72,48.3-11.338,23.207,0,31.773" transform="translate(163.536 153.299)"/><path class="c" d="M638.286,282.809s21.636-10.481,36.581-12.025,28.861-.378,40.714,5.859c0,0,1.028,2.825-4.093,2.117s-22.867-7.423-36.878-4.44-32.832,12.109-34.045,12.109S634.81,286.005,638.286,282.809Z" transform="translate(201.181 142.953)"/><path class="c" d="M641.375,281.7s7.646-9.187,21.673-6.112,18.137,11.924,23.9,11.277c0,0-23.4,8.664-41.331,2.542C638.469,286.969,641.375,281.7,641.375,281.7Z" transform="translate(210.167 154.308)"/><circle class="d" cx="5.484" cy="5.484" r="5.484" transform="translate(863.638 431.702)"/><circle class="e" cx="8.067" cy="8.067" r="8.067" transform="translate(861.333 429.771)"/><circle class="f" cx="2.504" cy="2.504" r="2.504" transform="translate(866.407 432.817)"/><path class="c" d="M653.678,283.258s-5.427-10.646-19.789-10.747-20.322,7.626-25.8,5.721c0,0,20.9,13.616,39.75,11.607C655.35,289.036,653.678,283.258,653.678,283.258Z" transform="translate(132.635 148.495)"/><circle class="d" cx="5.484" cy="5.484" r="5.484" transform="translate(763.426 423.535)"/><circle class="e" cx="7.907" cy="7.907" r="7.907" transform="translate(760.679 421.442)"/><circle class="f" cx="2.504" cy="2.504" r="2.504" transform="translate(767.022 424.742)"/><path class="c" d="M617.872,316.268s14.463,21.68,41.891,22.563c25.921.836,32.761-3.044,52.867-14.833,8.121-4.764-21.724-16.364-38.135-16.364s-12.457,1.675-24.438-2.06c-8.434-2.63-38.243-.283-36.277,4.433S617.872,316.268,617.872,316.268Z" transform="translate(145.898 224.299)"/><path class="c" d="M613.723,305.844s34.4,9.652,44.065,9.507c25.894-.388,57.627,3.186,57.627,3.186" transform="translate(145.985 227.537)"/><path class="c" d="M633.818,615.867c-2.674-.9-33.014,11.084-37.073-15.2s5.606-56.238-6.375-56.043-26.67-18.747-17.78-31.7,26.474-9.578,25.7-16.094-7.538-8.256-6.762-15.791,15.652-13.916,13.913-20.1-12.561-24.613-8.5-39.942,1.932-30.6-6.57-59.778,28.6-38.843,29.761-45.221,7.73-37.683,21.451-45.221,22.61-11.014,25.894-24.542,31.308-4.251,42.518-7.73,31.113-10.049,48.313-20.1,41.742-13.721,68.219,3.095,28.986,6.183,36.136,6.57,29.569,9.466,33.82,24.35,26.282,8.307,32.08,14.88,18.939,11.014,23.77,52.564,42.517,45.029,51.02,58.942,26.67,60.874,14.3,83.872-4.639,46.573-.772,59.134-1.935,54.886-33.82,52.372-26.669,15.46-40.006,25.125,12.757,31.692,9.277,40-16.04,33.624-35.559,33.82-48.7-10.437-51.4-26.282-7.923-15.848-16.232-16.815-17.83-33.189-8.917-44.132" transform="translate(41.988 0)"/><path class="c" d="M820.639,392c-1.979-2.7,3.911-20.871-1.5-29.252s-6.57-44.958-6.57-44.958-3.287-12.945-14.5-28.021S785.9,254.21,785.9,254.21s-4.447-12.564-41.163-4.447-44.449-7.922-46-.772c-1.291,5.97-28.733,39.585-59.812,73.923-9.166,10.13-20.13,18.366-31.821,25.436-4.8,2.906-8.644,7.056-6.732,12.534,4.251,12.173,19.907,19.519,18.359,28.989S605.6,424.529,605.6,424.529" transform="translate(113.147 88.082)"/><path class="c" d="M688.776,273.357s24.478,25.362,18.3,38.5-55.143,58.493-41.486,90.7,35.3,35.044,35.3,35.044" transform="translate(263.285 150.504)"/><path class="c" d="M659.622,320.778s10.049,37.879,31.436,34.015" transform="translate(254.82 262.948)"/><path class="c" d="M657.94,333.237s23.966,37.619,49.216,29.117" transform="translate(250.832 292.491)"/><path class="c" d="M659.316,248.32s63.9,35.043,72.407,56.43,36.331,37.643,54.883,39.436" transform="translate(254.095 91.136)"/><path class="c" d="M652.9,233.651s42.774-1.291,60.294,28.085" transform="translate(238.872 56.333)"/><path class="c" d="M664.909,238.46s-23.676,4.639-28.574,16.748,5.174,28.345,5.424,35.044" transform="translate(196.423 67.756)"/><path class="c" d="M701.8,233.277s-38.391-19.067-73.435,3.091" transform="translate(180.694 37.38)"/><path class="c" d="M678.423,233.262c-1.032,8.762-28.6,45.353-68.024,61.069" transform="translate(138.103 55.431)"/><path class="c" d="M642.316,246.638S615,268.025,581.507,260.554" transform="translate(69.595 87.148)"/><path class="c" d="M636.982,307.628c-1.547,0-38.3,15.7-65.341-8.96" transform="translate(46.2 210.521)"/><path class="c" d="M620.018,261.2s-32.98,22.637-28.729,46.876,1.932,53.615,1.932,53.615" transform="translate(91.893 121.675)"/><path class="c" d="M666.667,235.861s-27.317,6.83-35.967,21.774-21.4,37.1-32.225,38.779" transform="translate(109.829 61.593)"/><path class="c" d="M623.073,213.861" transform="translate(168.155 9.427)"/><path class="c" d="M642.845,275.164s18.036-6.287,37.1,8.516" transform="translate(215.039 151.643)"/><path class="c" d="M649.82,279.152s-13.619-15.238-40.033-3.3" transform="translate(136.652 145.589)"/><path class="c" d="M637.8,336.868c0,2.316,20.736,48.093,33.173,58.446" transform="translate(203.076 301.1)"/></g></svg>