<svg xmlns="http://www.w3.org/2000/svg" width="241.687" height="325.986" viewBox="0 0 241.687 325.986"><defs><style>.a,.c{fill:none;stroke-miterlimit:10;}.a{stroke:#faf2ed;stroke-width:10px;}.b{fill:#faf2ed;}.c{stroke:#004873;stroke-width:2px;}</style></defs><g transform="translate(-684.666 -129.543)"><path class="a" d="M719.317,146.343s99.582,41.5,9.959,121.644" transform="translate(150.291 70.566)"/><rect class="b" width="12.065" height="92.919" rx="1.067" transform="translate(849.307 354.492)"/><path class="b" d="M688.278,364.767l-2.225-226.66a5.787,5.787,0,0,1,5.729-5.843l174.3-1.711a5.786,5.786,0,0,1,5.838,5.548l8.91,218.849a5.786,5.786,0,0,1-5.472,6.013l-181,9.527A5.792,5.792,0,0,1,688.278,364.767Z" transform="translate(1.728 0.045)"/><line class="c" x2="0.82" y2="83.512" transform="translate(888.069 237.182)"/><path class="c" d="M841.479,365.949l-146.455,1.438a7.118,7.118,0,0,1-7.188-7.046l-2.17-220.833a7.118,7.118,0,0,1,7.046-7.188l180.914-1.776a7.118,7.118,0,0,1,7.183,6.833l2.886,73.088" transform="translate(0 0)"/><path class="c" d="M742.453,169.168l.765,16a9.059,9.059,0,0,1-8.953,9.484L718.5,194.8" transform="translate(146.642 172.506)"/><circle class="c" cx="52.236" cy="52.236" r="52.236" transform="translate(804.604 227.891)"/><path class="c" d="M777.7,382.074l1.684-99.894a68.575,68.575,0,1,0-14.939-.241l-1.678,99.883a7.468,7.468,0,1,0,14.934.251Z" transform="translate(83.589 65.107)"/><path class="c" d="M689.722,142.372s4.756-5.761,20.3-2.766,34.136,6.374,47.255,3.077,22.285-4.531,35.552-1.744,30.217,1.558,35.016-.88,12.862,3.444,17.945,2.979" transform="translate(18.115 36.623)"/><path class="c" d="M691.748,150.341s21.7-3.1,37.121-1.378a56.185,56.185,0,0,0,27.746-4.165" transform="translate(27.163 63.665)"/><path class="c" d="M707.963,146.931c2.695-1.935,17.967-4.5,34.229-1.061s28.55-1.093,28.55-1.093" transform="translate(99.582 60.91)"/><path class="c" d="M691.711,157.273c3.646-4.947,25.647-11.452,47.386-3.438s32.037-.918,32.037-.918" transform="translate(26.998 87.185)"/><path class="c" d="M707.744,161.781a15.779,15.779,0,0,1,9.254.306c14.283,5.515,38.438-12.255,53.749-1.607" transform="translate(98.604 118.202)"/><path class="c" d="M691.756,159.689c3.482-5.647,29.949-1.908,46.971,5,7.133,2.892,14.923.454,22.614-2.946" transform="translate(27.199 117.894)"/><path class="c" d="M692.6,170.379c2.788.6,31.382-9.085,48.9-4.034s22.171-.2,22.171-.2" transform="translate(30.969 153.36)"/><path class="c" d="M749.407,164.375c-.547-.743-28.572-.47-37.744,3.05" transform="translate(116.107 149.597)"/></g></svg>