<svg xmlns="http://www.w3.org/2000/svg" width="27.211" height="33.157" viewBox="0 0 27.211 33.157"><defs><style>.a{fill:#dfbba6;}.b{fill:none;stroke:#004873;stroke-miterlimit:10;stroke-width:0.75px;}</style></defs><g transform="translate(-517.911 -115.716)"><path class="a" d="M527.492,117.555l2.8,7.176a1.021,1.021,0,0,1-.129.97l-2.612,3.552a.816.816,0,0,0-.03.923l5.131,7.857a.573.573,0,0,0,.595.253l4.6-.934a.979.979,0,0,1,.836.22l4.919,4.25a.907.907,0,0,1,.252.99c-.819,2.311-4.418,9.989-13.773.714-10.865-10.77-10.658-20.565-9.25-23.318,1.232-2.406,5.336-2.8,6.348-2.861A.315.315,0,0,1,527.492,117.555Z" transform="translate(-0.617 -0.435)"/><path class="b" d="M526.408,116.314l3.155,7.587a1.029,1.029,0,0,1-.133,1.021l-2.848,3.72a.828.828,0,0,0-.025.973l5.728,8.326a.652.652,0,0,0,.658.272L538,137.27a1.123,1.123,0,0,1,.923.239l5.461,4.523a.94.94,0,0,1,.287,1.045c-.883,2.429-4.782,10.488-15.179.63-12.075-11.447-11.935-21.767-10.406-24.656,1.336-2.525,5.858-2.9,6.973-2.959A.356.356,0,0,1,526.408,116.314Z"/></g></svg>