<svg xmlns="http://www.w3.org/2000/svg" width="136.088" height="99.802" viewBox="0 0 136.088 99.802"><defs><style>.a{fill:#ce9d81;}</style></defs><g transform="translate(-1112.699 -128.014)"><g transform="translate(1112.699 128.014)"><path class="a" d="M1163.838,227.817l4.945-10.316a98.46,98.46,0,0,1-14.852-7.843,42.935,42.935,0,0,1-13.4-13.8q-5.575-8.883-5.559-24.553a20,20,0,0,0,6.188,2.063,44.4,44.4,0,0,0,6.174.425q11.957,0,17.528-6.6a23,23,0,0,0,5.576-15.276,23.362,23.362,0,0,0-6.819-16.9q-6.8-7.016-19.167-7.008-15.686,0-23.718,9.481t-8.032,26.4q0,16.088,5.764,27.215a62.517,62.517,0,0,0,14.238,18.552,83.632,83.632,0,0,0,16.9,11.765A126.353,126.353,0,0,0,1163.838,227.817Zm78.352,0,4.944-10.316a98.518,98.518,0,0,1-14.85-7.843,42.9,42.9,0,0,1-13.4-13.8q-5.579-8.883-5.56-24.553a20,20,0,0,0,6.188,2.063,44.417,44.417,0,0,0,6.175.425q11.952,0,17.527-6.6a22.989,22.989,0,0,0,5.575-15.276,23.4,23.4,0,0,0-6.8-16.9c-4.55-4.677-10.929-7.008-19.183-7.008q-15.684,0-23.717,9.481t-8.032,26.4q0,16.088,5.766,27.215a62.778,62.778,0,0,0,14.236,18.552,84.124,84.124,0,0,0,16.9,11.765A126.352,126.352,0,0,0,1242.19,227.817Z" transform="translate(-1112.699 -128.014)"/></g></g></svg>