<svg xmlns="http://www.w3.org/2000/svg" width="247.634" height="215.896" viewBox="0 0 247.634 215.896"><defs><style>.a,.c{fill:#faf2ed;}.b{fill:#fde8e4;stroke:#fde8e4;}.b,.c,.d{stroke-miterlimit:10;stroke-width:2.5px;}.c,.d{stroke:#015985;}.d{fill:none;}</style></defs><g transform="translate(0.871 0.906)"><g transform="translate(0.379 0.376)"><path class="a" d="M64.832,61.584A31.2,31.2,0,0,1,22.387,30.173,31.163,31.163,0,1,1,80.249,48.73l3.306,17.028Z" transform="translate(68.294 3.734)"/><circle class="b" cx="26.906" cy="26.906" r="26.906" transform="translate(17.857 55.481)"/><path class="a" d="M41.433,29.57h0A39.842,39.842,0,0,1,81.276,69.412v44.14a4.133,4.133,0,0,1-4.133,4.133H5.394a3.844,3.844,0,0,1-3.844-3.678v-44.6A39.842,39.842,0,0,1,41.392,29.57Z" transform="translate(3.288 91.089)"/><circle class="c" cx="33.767" cy="33.767" r="33.767" transform="translate(11.492 48.373)"/><path class="d" d="M45.638,28.545h0A45.463,45.463,0,0,1,91.1,74.008v46.083a5.745,5.745,0,0,1-5.91,5.91H5.961a5.621,5.621,0,0,1-5.58-5.786V73.843A45.463,45.463,0,0,1,45.845,28.38Z" transform="translate(-0.379 87.36)"/><circle class="a" cx="26.906" cy="26.906" r="26.906" transform="translate(172.266 55.481)"/><path class="a" d="M78.752,29.57h0a39.842,39.842,0,0,1,39.842,39.842v44.14a4.133,4.133,0,0,1-4.133,4.133H42.754a3.844,3.844,0,0,1-3.844-3.844V69.412A39.842,39.842,0,0,1,78.752,29.57Z" transform="translate(120.337 91.089)"/><circle class="d" cx="33.767" cy="33.767" r="33.767" transform="translate(165.901 48.373)"/><path class="d" d="M83.028,28.42h0a45.463,45.463,0,0,1,45.463,45.463v46.083a5.745,5.745,0,0,1-5.91,5.91H43.351a5.621,5.621,0,0,1-5.621-5.621V73.718a45.463,45.463,0,0,1,45.3-45.3Z" transform="translate(116.64 87.486)"/><path class="d" d="M70.385,70.158a35.668,35.668,0,0,1-15.995,2.356A36.122,36.122,0,1,1,88.075,55.237l3.844,19.756Z" transform="translate(64.435 -0.376)"/></g></g></svg>