<svg xmlns="http://www.w3.org/2000/svg" width="244.034" height="214.884" viewBox="0 0 244.034 214.884"><defs><style>.a,.b{fill:#faf2ed;}.a,.c{stroke:#015985;stroke-miterlimit:10;stroke-width:2.5px;}.c{fill:none;}</style></defs><g transform="translate(11.095 0.88)"><g transform="translate(-9.748 0.37)"><rect class="a" width="54.205" height="6.666" rx="0.63" transform="translate(46.533 113.684) rotate(90)"/><path class="b" d="M10.31,49.92v4.057c0,1.947,2.993,3.489,6.669,3.489h121.8c3.677,0,6.627-1.542,6.627-3.489V49.92Z" transform="translate(40.34 151.116)"/><path class="b" d="M199.262,66.165H32.008a2.932,2.932,0,0,1-1.812-.527L3.023,44.5c-1.132-.852,0-2.11,1.812-2.11H226.752c1.857,0,2.944,1.258,1.812,2.11L201.39,65.638a2.947,2.947,0,0,1-2.129.527Z" transform="translate(6.179 128.095)"/><ellipse class="b" cx="28.979" cy="29.456" rx="28.979" ry="29.456" transform="translate(89.882 5.193)"/><ellipse class="c" cx="34.089" cy="34.649" rx="34.089" ry="34.649" transform="translate(84.773)"/><path class="b" d="M57.993,18.12h.718c23.044.022,41.713,19.016,41.713,42.439v47.957H16.24V60.559c0-23.438,18.693-42.439,41.753-42.439Z" transform="translate(58.713 53.896)"/><path class="c" d="M15.8,117.055V63.905c0-25.641,20.438-46.433,45.665-46.455h0c25.242,0,45.7,20.8,45.7,46.455v53.15" transform="translate(57.397 51.848)"/><path class="a" d="M7.056.081,22.4,0a7.669,7.669,0,0,1,7.774,7.678l0,.84a7.752,7.752,0,0,1-2.29,5.522,7.949,7.949,0,0,1-5.567,2.318L6.968,16.44A6.874,6.874,0,0,1,0,9.557l.013-2.48A6.95,6.95,0,0,1,2.077,2.148,7.125,7.125,0,0,1,7.056.081Z" transform="translate(61.606 92.464) rotate(110.36)"/><path class="c" d="M202.555,73.548H40.318a25.839,25.839,0,0,1-17.607-6.329L1.241,46.73c-2.156-2.029,0-4.95,3.459-4.95H237.9c3.144,0,4.941,2.6,3.054,4.382L218.141,68.03a22.864,22.864,0,0,1-15.586,5.518Z" transform="translate(-0.378 126.23)"/><path class="c" d="M152.284,49.61v6.816a6.153,6.153,0,0,1-2.293,4.3,6.781,6.781,0,0,1-4.822,1.464H17.348a6.465,6.465,0,0,1-6.988-5.761V49.61" transform="translate(40.49 150.169)"/></g></g></svg>