<svg xmlns="http://www.w3.org/2000/svg" width="246.5" height="215.161" viewBox="0 0 246.5 215.161"><defs><style>.a,.b{fill:#faf2ed;}.b{stroke:#faf2ed;}.b,.c{stroke-miterlimit:10;stroke-width:2.5px;}.c{fill:none;stroke:#015985;}</style></defs><g transform="translate(6.751 0.88)"><g transform="translate(0.37 0.37)"><path class="a" d="M7.417,39.78A14.571,14.571,0,0,0,21.441,54.858,14.61,14.61,0,0,0,35.464,39.78Z" transform="translate(20.084 114.169)"/><path class="a" d="M44.454,39.05a15.938,15.938,0,1,0,31.758,0Z" transform="translate(127.581 112.047)"/><rect class="b" height="90.393" transform="translate(96.643 50.821) rotate(90)"/><circle class="a" cx="6.68" cy="6.68" r="6.68" transform="translate(108.284 3.281)"/><rect class="a" width="12.305" height="76.252" transform="translate(110.315 109.807)"/><rect class="b" width="2.852" height="51.798" transform="translate(117.151 102.658) rotate(180)"/><rect class="b" height="90.393" transform="translate(220.903 51.056) rotate(90)"/><rect class="a" width="60.626" height="12.266" rx="0.24" transform="translate(85.002 195.356)"/><circle class="c" cx="10.196" cy="10.196" r="10.196" transform="translate(105.08)"/><rect class="c" width="69.806" height="21.172" rx="0.82" transform="translate(80.939 191.488)"/><path class="c" d="M29.981,27.52H43.536A2.461,2.461,0,0,1,46,29.981v82.971H27.52V30.02a2.461,2.461,0,0,1,2.461-2.5Z" transform="translate(78.537 78.537)"/><path class="c" d="M31.033,11H36.15a2.422,2.422,0,0,1,2.422,2.422V75.533H28.611V13.5A2.422,2.422,0,0,1,31.033,11Z" transform="translate(81.704 30.524)"/><rect class="c" width="1.094" height="19.454" transform="translate(114.729 22.032)"/><path class="c" d="M43.2,38.36a20.743,20.743,0,1,0,41.407,0Z" transform="translate(123.992 110.042)"/><path class="c" d="M84.577,101.568,60.2,16.41,43.17,101.568Z" transform="translate(124.021 46.248)"/><path class="c" d="M5.7,38.86A21.524,21.524,0,0,0,26.4,61.126a21.524,21.524,0,0,0,20.7-22.266Z" transform="translate(15.082 111.495)"/><path class="c" d="M47.1,102.158,22.722,17,5.69,102.158Z" transform="translate(15.092 47.962)"/><rect class="c" width="116.186" height="7.695" rx="0.67" transform="translate(110.315 54.689) rotate(180)"/><rect class="c" width="117.619" height="7.695" rx="0.67" transform="translate(238.129 54.884) rotate(180)"/></g></g></svg>