<svg xmlns="http://www.w3.org/2000/svg" width="245.069" height="219.958" viewBox="0 0 245.069 219.958"><defs><style>.a,.c{fill:none;stroke:#004873;stroke-linejoin:round;stroke-miterlimit:10;stroke-width:2.5px;}.a{stroke-linecap:round;}.b{fill:#faf2ed;}</style></defs><g transform="translate(-696.282 -41.111)"><path class="a" d="M826,44.212h8.666a11.153,11.153,0,0,1,10.97,11.329V214.167a12.216,12.216,0,0,1-11.155,12.369c-23.1,1.618-77.838,7.471-110.263,27.191l2.346-189.5Z" transform="translate(94.464 6.091)"/><path class="a" d="M717.22,44.212h-8.688a11.161,11.161,0,0,0-11,11.317V214a12.22,12.22,0,0,0,11.185,12.357c23.165,1.616,77.455,7.674,109.967,27.375V234.544L816.925,64.212Z" transform="translate(0 6.091)"/><path class="b" d="M726.78,64.512S784.248,45.124,817.642,42.9a6.462,6.462,0,0,1,6.847,6.468V200.151a9.185,9.185,0,0,1-7.173,8.938c-21.076,4.763-81.955,19.388-91.769,31.376Z" transform="translate(92.312 1.717)"/><path class="b" d="M801.418,64.456S743.371,45.12,709.641,42.9a6.49,6.49,0,0,0-6.915,6.451v150.4a9.181,9.181,0,0,0,7.246,8.917c21.286,4.755,82.775,19.341,92.688,31.3Z" transform="translate(17.115 1.717)"/><path class="c" d="M724.314,65.521s61.822-20.81,96.308-23.142a6.716,6.716,0,0,1,7.069,6.778V207.3a9.592,9.592,0,0,1-7.409,9.372c-21.764,5-84.639,20.337-94.775,32.909Z" transform="translate(93.178 0)"/><path class="c" d="M802.961,65.618s-59.5-20.907-93.9-23.239a6.707,6.707,0,0,0-7.054,6.778V207.3a9.587,9.587,0,0,0,7.39,9.372c21.711,5,84.418,20.337,94.528,32.909Z" transform="translate(14.755 0)"/></g></svg>