<svg xmlns="http://www.w3.org/2000/svg" width="245.633" height="214.88" viewBox="0 0 245.633 214.88"><defs><style>.a{fill:#f9ece5;}.b,.d{fill:#faf2ed;}.c{fill:none;}.c,.d{stroke:#004873;stroke-miterlimit:10;stroke-width:2.5px;}</style></defs><g transform="translate(-167.996 463.69)"><path class="a" d="M560.3,86.029H541.793v-18.7c0-13.4,9.472-23.9,21.562-23.9h50.633c12.091,0,21.558,10.5,21.558,23.9V86.044H617.039V67.329c0-4.372-2.334-6.722-3.078-6.872H563.355c-.716.15-3.05,2.5-3.05,6.872Z" transform="translate(-297.567 -502.318)"/><path class="b" d="M18.95,0H217.274c10.466,0,18.95,8.209,18.95,18.336V136.95c0,10.126-8.484,18.336-18.95,18.336H18.95C8.484,155.286,0,147.077,0,136.95V18.336C0,8.209,8.484,0,18.95,0Z" transform="translate(172.99 -411.051)"/><g transform="translate(244.492 -462.44)"><path class="c" d="M560.317,88.726H541.858V68.46c0-14.521,9.445-25.9,21.5-25.9h50.489c12.055,0,21.5,11.379,21.5,25.9V88.742H616.886V68.46c0-4.733-2.327-7.281-3.069-7.445l-50.46,0c-.713.16-3.04,2.708-3.04,7.441Z" transform="translate(-541.858 -42.56)"/></g><path class="c" d="M560.317,88.726H541.858V68.46c0-14.521,9.445-25.9,21.5-25.9h50.489c12.055,0,21.5,11.379,21.5,25.9V88.742H616.886V68.46c0-4.733-2.327-7.281-3.069-7.445l-50.46,0c-.713.16-3.04,2.708-3.04,7.441Z" transform="translate(-297.366 -505)"/><rect class="c" width="243.133" height="166.214" rx="23" transform="translate(169.246 -416.274)"/><path class="d" d="M560.317,88.726H541.858V68.46c0-14.521,9.445-25.9,21.5-25.9h50.489c12.055,0,21.5,11.379,21.5,25.9V88.742H616.886V68.46c0-4.733-2.327-7.281-3.069-7.445l-50.46,0c-.713.16-3.04,2.708-3.04,7.441Z" transform="translate(-297.366 -505)"/></g></svg>